<?xml version="1.0" encoding="UTF-8" standalone="no"?>
<!-- Created with Inkscape (http://www.inkscape.org/) -->

<svg
   width="210mm"
   height="297mm"
   viewBox="0 0 210 297"
   version="1.1"
   id="svg5"
   inkscape:version="1.2.2 (732a01da63, 2022-12-09)"
   sodipodi:docname="drawing-5.svg"
   xmlns:inkscape="http://www.inkscape.org/namespaces/inkscape"
   xmlns:sodipodi="http://sodipodi.sourceforge.net/DTD/sodipodi-0.dtd"
   xmlns="http://www.w3.org/2000/svg"
   xmlns:svg="http://www.w3.org/2000/svg">
  <sodipodi:namedview
     id="namedview7"
     pagecolor="#ffffff"
     bordercolor="#000000"
     borderopacity="0.25"
     inkscape:showpageshadow="2"
     inkscape:pageopacity="0.0"
     inkscape:pagecheckerboard="0"
     inkscape:deskcolor="#d1d1d1"
     inkscape:document-units="mm"
     showgrid="false"
     inkscape:zoom="0.71181884"
     inkscape:cx="421.45555"
     inkscape:cy="774.07336"
     inkscape:window-width="1360"
     inkscape:window-height="745"
     inkscape:window-x="-8"
     inkscape:window-y="-8"
     inkscape:window-maximized="1"
     inkscape:current-layer="text5037" />
  <defs
     id="defs2" />
  <g
     inkscape:label="Layer 1"
     inkscape:groupmode="layer"
     id="layer1">
    <path
       sodipodi:type="star"
       style="fill:#b92d3a;fill-opacity:0.476684;stroke:#000000;stroke-width:3.66501;stroke-dasharray:none;stroke-opacity:0.685567;paint-order:fill markers stroke;stop-color:#000000"
       id="path4923"
       inkscape:flatsided="false"
       sodipodi:sides="5"
       sodipodi:cx="86.977882"
       sodipodi:cy="97.757202"
       sodipodi:r1="45.743317"
       sodipodi:r2="26.772755"
       sodipodi:arg1="0.89478635"
       sodipodi:arg2="1.5231049"
       inkscape:rounded="0"
       inkscape:randomized="0"
       d="m 115.59881,133.44044 -27.344581,-8.94092 -26.368768,11.50453 0.05338,-28.76914 -19.089861,-21.523093 27.377576,-8.839383 14.570585,-24.806537 16.866886,23.306101 28.09498,6.191809 -16.95326,23.243343 z"
       inkscape:transform-center-x="0.67388619"
       inkscape:transform-center-y="-3.7222297"
       transform="translate(10.03591,51.294653)" />
    <path
       sodipodi:type="star"
       style="fill:#b92d3a;fill-opacity:0.476684;stroke:#000000;stroke-width:5.70845;stroke-dasharray:none;stroke-opacity:0.685567;paint-order:fill markers stroke;stop-color:#000000"
       id="path4925"
       inkscape:flatsided="false"
       sodipodi:sides="5"
       sodipodi:cx="93.296791"
       sodipodi:cy="126.00643"
       sodipodi:r1="34.971455"
       sodipodi:r2="20.468176"
       sodipodi:arg1="1.5282688"
       sodipodi:arg2="2.1565873"
       inkscape:rounded="0"
       inkscape:randomized="0"
       d="M 94.783592,160.94627 81.980783,143.06205 60.52648,138.21747 73.579093,120.51474 71.556824,98.613431 l 20.869768,6.943329 20.204468,-8.691168 -0.15438,21.993938 14.50932,16.52987 -20.96519,6.64967 z"
       inkscape:transform-center-x="-0.3021895"
       inkscape:transform-center-y="1.8171493"
       transform="matrix(0.65772704,0,0,0.62671209,35.45459,70.162801)" />
    <path
       sodipodi:type="star"
       style="fill:#b92d3a;fill-opacity:0.476684;stroke:#000000;stroke-width:10.8657;stroke-dasharray:none;stroke-opacity:0.685567;paint-order:fill markers stroke;stop-color:#000000"
       id="path4929"
       inkscape:flatsided="false"
       sodipodi:sides="5"
       sodipodi:cx="68.021172"
       sodipodi:cy="140.13104"
       sodipodi:r1="28.453899"
       sodipodi:r2="16.653566"
       sodipodi:arg1="0.58075635"
       sodipodi:arg2="1.2090749"
       inkscape:rounded="0"
       inkscape:randomized="0"
       d="m 91.809995,155.74246 -17.89538,-0.0355 -13.389631,11.87281 -5.496197,-17.03049 -15.429337,-9.0654 14.498542,-10.4899 3.853777,-17.47554 14.456789,10.54738 17.811102,-1.73508 -5.563755,17.00854 z"
       inkscape:transform-center-x="0.27891984"
       inkscape:transform-center-y="-0.6038021"
       transform="matrix(0.33061847,0.08402479,-0.09117964,0.3209465,87.584837,98.640594)" />
    <g
       aria-label="AH"
       transform="matrix(1.0607192,0,0,0.94275659,0,-1.8585019)"
       id="text5037"
       style="font-size:68.4225px;font-family:'Bauhaus 93';-inkscape-font-specification:'Bauhaus 93, ';fill:#b92d3a;fill-opacity:0.476684;stroke:#000000;stroke-width:3.66501;stroke-opacity:0.685567;paint-order:fill markers stroke;stop-color:#000000">
      <path
         d="m 72.82273,229.44717 0.700846,4.53627 -3.908903,0.39426 -0.700846,17.95493 H 55.349601 v -28.99938 c 0,-5.61279 -0.226418,-28.8921 2.824976,-31.98804 3.073667,-3.11821 3.879253,19.37314 9.425217,19.37314 5.345508,0 12.102341,-3.71118 14.66373,-0.88251 2.561389,2.80639 0.695134,11.6052 1.739545,17.36664 l 1.051269,24.73588 -10.059996,0.39427 v -28.56506 c 0,-1.78184 -0.211593,-3.01799 -0.634779,-3.70845 -0.423186,-0.69046 -1.180466,-1.03569 -2.271841,-1.03569 -2.11593,0 -10.335939,4.43456 -8.079817,6.32122 l 4.905922,4.10252 z"
         style="stroke-width:3.665"
         id="path5039"
         sodipodi:nodetypes="cccccscscsccsssscc" />
      <path
         d="m 121.82609,224.60964 -4.90593,7.29615 -6.57865,3.15416 v 17.27268 H 96.777286 v -45.60387 h 13.564224 v 16.3038 z m 8.16016,-17.88088 v 45.60387 l -9.00872,0.78854 c -0.35042,-15.46414 11.50886,-30.92827 -1.05127,-46.39241 z"
         style="stroke-width:3.665"
         id="path5041"
         sodipodi:nodetypes="cccccccccccccc" />
      <path
         style="fill:none;fill-rule:evenodd;stroke:#000000;stroke-width:0.865;stroke-linecap:butt;stroke-linejoin:miter;stroke-dasharray:none;stroke-opacity:0.716495"
         d="m 166.79859,144.78373 c -34.00362,49.26489 15.1828,155.68256 -136.659455,128.75273"
         id="path5057"
         inkscape:connector-type="polyline"
         inkscape:connector-curvature="0"
         sodipodi:nodetypes="cc" />
    </g>
  </g>
</svg>
