<?xml version="1.0" encoding="UTF-8" standalone="no"?>
<!-- Created with Inkscape (http://www.inkscape.org/) -->

<svg
   width="210mm"
   height="297mm"
   viewBox="0 0 210 297"
   version="1.1"
   id="svg5"
   inkscape:version="1.2.2 (732a01da63, 2022-12-09)"
   sodipodi:docname="drawing-7.svg"
   xmlns:inkscape="http://www.inkscape.org/namespaces/inkscape"
   xmlns:sodipodi="http://sodipodi.sourceforge.net/DTD/sodipodi-0.dtd"
   xmlns="http://www.w3.org/2000/svg"
   xmlns:svg="http://www.w3.org/2000/svg">
  <sodipodi:namedview
     id="namedview7"
     pagecolor="#ffffff"
     bordercolor="#000000"
     borderopacity="0.25"
     inkscape:showpageshadow="2"
     inkscape:pageopacity="0.0"
     inkscape:pagecheckerboard="0"
     inkscape:deskcolor="#d1d1d1"
     inkscape:document-units="mm"
     showgrid="false"
     inkscape:zoom="0.50333193"
     inkscape:cx="397.3521"
     inkscape:cy="548.3459"
     inkscape:window-width="1360"
     inkscape:window-height="745"
     inkscape:window-x="-8"
     inkscape:window-y="-8"
     inkscape:window-maximized="1"
     inkscape:current-layer="text1608" />
  <defs
     id="defs2" />
  <g
     inkscape:label="Layer 1"
     inkscape:groupmode="layer"
     id="layer1">
    <path
       style="fill:none;fill-rule:evenodd;stroke:#000000;stroke-width:3.065;stroke-linecap:butt;stroke-linejoin:miter;stroke-dasharray:none;stroke-opacity:0.71502596"
       d="m 117.48583,137.04314 c -93.462269,35.1967 -80.79699,46.88338 0.52568,83.36509"
       id="path111"
       inkscape:connector-type="polyline"
       inkscape:connector-curvature="0"
       sodipodi:nodetypes="cc" />
    <path
       style="fill:#dd5498;fill-rule:evenodd;stroke:#000000;stroke-width:0.264583px;stroke-linecap:butt;stroke-linejoin:miter;stroke-opacity:0.71502596"
       d="m 79.375221,129.31327 -0.525663,0.52567"
       id="path113"
       inkscape:connector-type="polyline"
       inkscape:connector-curvature="0" />
    <path
       style="fill:#e374ab;fill-rule:evenodd;stroke:#000000;stroke-width:3.06499;stroke-linecap:butt;stroke-linejoin:miter;stroke-dasharray:none;stroke-opacity:0.71502596"
       d="M 125.38572,126.69007 C 2.7152248,164.57461 22.247657,197.22565 124.89975,228.13708"
       id="path115"
       inkscape:connector-type="polyline"
       inkscape:connector-curvature="0"
       sodipodi:nodetypes="cc" />
    <path
       style="display:inline;fill:#dd5498;fill-rule:evenodd;stroke:#000000;stroke-width:3.065;stroke-linecap:butt;stroke-linejoin:miter;stroke-dasharray:none;stroke-opacity:0.71502596"
       d="m 107.23541,149.71213 c -78.355085,30.3044 -42.81445,36.42557 0.52565,59.0784"
       id="path117"
       inkscape:connector-type="polyline"
       inkscape:connector-curvature="0"
       sodipodi:nodetypes="cc" />
    <path
       style="fill:#dd5498;fill-rule:evenodd;stroke:#000000;stroke-width:2.065;stroke-linecap:butt;stroke-linejoin:miter;stroke-dasharray:none;stroke-opacity:0.71502596"
       d="m 126.15929,124.52026 -1.05133,104.73113"
       id="path1000"
       inkscape:connector-type="polyline"
       inkscape:connector-curvature="0" />
    <path
       style="fill:#dd5498;fill-rule:evenodd;stroke:#000000;stroke-width:2.065;stroke-linecap:butt;stroke-linejoin:miter;stroke-dasharray:none;stroke-opacity:0.71502596"
       d="m 117.74867,136.09772 -1.05133,83.15321"
       id="path1002"
       inkscape:connector-type="polyline"
       inkscape:connector-curvature="0" />
    <path
       style="fill:#dd5498;fill-rule:evenodd;stroke:#000000;stroke-width:2.06501;stroke-linecap:butt;stroke-linejoin:miter;stroke-dasharray:none;stroke-opacity:0.71502596"
       d="m 108.28673,147.10152 -0.52567,63.24829"
       id="path1004"
       inkscape:connector-type="polyline"
       inkscape:connector-curvature="0"
       sodipodi:nodetypes="cc" />
    <path
       style="fill:#dd5498;fill-rule:evenodd;stroke:#000000;stroke-width:0.264583px;stroke-linecap:butt;stroke-linejoin:miter;stroke-opacity:1"
       d="m 91.465486,250.74159 v 0"
       id="path1006"
       inkscape:connector-type="polyline"
       inkscape:connector-curvature="0" />
    <path
       style="fill:none;fill-rule:evenodd;stroke:#000000;stroke-width:0.264583px;stroke-linecap:butt;stroke-linejoin:miter;stroke-opacity:0.492228"
       d="m 63.605309,264.93451 v 0"
       id="path1488"
       inkscape:connector-type="polyline"
       inkscape:connector-curvature="0" />
    <path
       style="fill:none;fill-rule:evenodd;stroke:#000000;stroke-width:0.264583px;stroke-linecap:butt;stroke-linejoin:miter;stroke-opacity:1"
       d="m 134.56991,248.63894 v 0.52566"
       id="path1490"
       inkscape:connector-type="polyline"
       inkscape:connector-curvature="0" />
    <g
       aria-label="IH"
       id="text1608"
       style="font-size:64.5057px;font-family:Andalus;-inkscape-font-specification:Andalus;fill:#e374ab;fill-opacity:0.476684;stroke:#000000;stroke-width:2.065;stroke-opacity:0.715026;paint-order:fill markers stroke;stop-color:#000000">
      <path
         d="m 60.165712,79.486343 28.071135,-2.628319 -4.220588,4.283582 V 113.9299 l 3.968612,3.33868 H 73.307305 l 4.378073,-3.62215 -0.525664,-38.633592 z m 29.488496,-0.832994 -3.212686,3.181189 V 113.9299 l 5.291483,5.92142 h -16.3784 l -0.787423,-0.85041 h 15.307505 l -4.315079,-4.75604 2.628319,-45.309733 0.930834,-1.425001 z"
         style="font-family:Algerian;-inkscape-font-specification:Algerian"
         id="path1660"
         sodipodi:nodetypes="cccccccccccccccccccc" />
      <path
         d="m 93.780305,76.858024 h 14.803555 l -4.28358,4.189091 v 13.606671 q 0.72443,0.125987 1.70083,0.188981 V 81.362084 l 3.43317,-3.401668 0.62993,0.566945 -3.24418,3.212686 v 13.134217 l 1.0394,0.09449 q 2.42526,0.220478 4.69304,0.220478 3.27568,0 5.63795,-0.314969 V 80.385679 l -3.84263,-3.527655 h 14.55158 l -4.34657,4.189091 v 32.819795 l 3.81113,3.40167 h -14.48859 l 4.31508,-3.68514 v -13.3547 q -2.64574,0.62994 -5.44897,0.62994 -2.64574,0 -5.48046,-0.28347 l -0.44096,-0.0315 v 13.3232 l 5.19699,5.98441 H 95.733114 l -0.81892,-0.85041 h 15.370496 l -4.28358,-4.69304 V 99.819281 l 0.91341,0.06299 q 4.15759,0.314969 6.01591,0.314969 3.02371,0 5.25999,-0.81892 v -1.133885 q -2.96071,0.440957 -6.89783,0.440957 -2.11029,0 -3.08669,-0.09449 l -3.18119,-0.283472 q -0.18899,-0.0315 -0.72443,-0.06299 v 15.62247 l 4.0316,3.40167 H 93.780305 l 4.220588,-3.68514 V 99.819281 q -2.645742,0 -4.220588,2.078799 l -0.661436,-0.31497 q 1.826822,-2.299277 4.882024,-2.551252 v -1.165386 q -3.527656,0 -5.574956,2.677238 l -0.472454,-0.31497 q 1.858319,-4.535556 6.04741,-5.354476 V 80.700649 Z m 36.441935,1.763828 -3.21268,3.118195 v 32.126863 l 5.22849,5.98441 h -16.34691 l -0.78742,-0.85041 h 15.339 l -4.22059,-4.75604 V 81.425078 l 3.49616,-3.464662 z"
         style="font-family:Algerian;-inkscape-font-specification:Algerian"
         id="path1662" />
    </g>
  </g>
</svg>
