<?xml version="1.0" encoding="UTF-8" standalone="no"?>
<!-- Created with Inkscape (http://www.inkscape.org/) -->

<svg
   width="210mm"
   height="297mm"
   viewBox="0 0 210 297"
   version="1.1"
   id="svg5"
   inkscape:version="1.2.2 (732a01da63, 2022-12-09)"
   sodipodi:docname="drawing-4.svg"
   xmlns:inkscape="http://www.inkscape.org/namespaces/inkscape"
   xmlns:sodipodi="http://sodipodi.sourceforge.net/DTD/sodipodi-0.dtd"
   xmlns="http://www.w3.org/2000/svg"
   xmlns:svg="http://www.w3.org/2000/svg">
  <sodipodi:namedview
     id="namedview7"
     pagecolor="#ffffff"
     bordercolor="#000000"
     borderopacity="0.25"
     inkscape:showpageshadow="2"
     inkscape:pageopacity="0.0"
     inkscape:pagecheckerboard="0"
     inkscape:deskcolor="#d1d1d1"
     inkscape:document-units="mm"
     showgrid="false"
     inkscape:zoom="0.50333193"
     inkscape:cx="397.3521"
     inkscape:cy="562.25322"
     inkscape:window-width="1360"
     inkscape:window-height="745"
     inkscape:window-x="-8"
     inkscape:window-y="-8"
     inkscape:window-maximized="1"
     inkscape:current-layer="text1225" />
  <defs
     id="defs2" />
  <g
     inkscape:label="Layer 1"
     inkscape:groupmode="layer"
     id="layer1">
    <g
       aria-label="العراب"
       transform="scale(0.92871567,1.0767558)"
       id="text113"
       style="font-size:66.5577px;font-family:Andalus;-inkscape-font-specification:Andalus;fill:#050761;fill-opacity:0.476684;stroke:#000000;stroke-width:1.765;stroke-opacity:0.632124;paint-order:fill markers stroke;stop-color:#000000">
      <path
         d="m 190.84179,128.57032 q -0.64998,0.84498 -4.74483,0.84498 -2.37242,0 -3.96487,-0.29249 -1.59244,-0.32499 -2.56741,-1.03997 -0.94247,-0.74747 -1.36495,-1.94993 -0.38999,-1.20246 -0.38999,-2.9574 v -20.3443 q 0,-2.07992 -3.73737,-8.677197 2.50241,0 7.14975,-5.719802 v 31.133929 q 0,1.62494 0.29249,2.8599 0.29249,1.23495 1.00747,2.17742 0.71497,0.94247 1.88493,1.65744 1.20246,0.71498 2.9899,1.29996 0.61748,0.19499 1.46245,0.42248 0.87747,0.2275 1.98243,0.58498 z"
         id="path273" />
      <path
         d="m 172.34993,127.62786 q -1.55995,1.78744 -3.93237,1.78744 h -9.09968 v -4.87484 h 4.32235 q 0.29249,0 0.61748,-0.16249 0.32499,-0.19499 0.58498,-0.48748 0.29249,-0.29249 0.45498,-0.61748 0.1625,-0.35749 0.1625,-0.71498 v -19.72682 q 0,-2.07992 -3.73737,-8.677197 2.20992,0 7.14975,-5.719802 v 34.416309 q 0,1.29996 0.12999,2.11243 0.1625,0.81247 0.51999,1.29995 0.38998,0.48749 1.07246,0.77998 0.68248,0.29249 1.75494,0.58498 z"
         id="path275" />
      <path
         d="m 161.5928,129.4153 h -11.40711 q -2.20992,0 -3.28239,-2.07993 l -1.29995,-2.53492 -2.33992,2.37242 q -2.20992,2.24243 -3.63987,2.24243 h -5.32982 v -4.87484 h 6.43478 q 1.20246,0 2.66491,-1.42995 l 0.97496,-0.94246 -1.29995,-2.50242 q -0.55248,-1.07246 -1.00747,-1.72244 -0.45498,-0.68247 -0.97497,-1.03996 -0.51998,-0.35749 -1.16995,-0.48749 -0.64998,-0.12999 -1.62495,-0.12999 h -2.53491 l 6.56477,-6.53228 q 1.26746,-1.26745 3.86737,-1.26745 h 10.13965 q 1.03996,0 2.17742,-1.62495 v 3.18489 q 0,1.65745 -1.36495,3.24989 l -7.86473,7.83223 0.90997,1.91744 q 0.71498,1.49494 2.24242,1.49494 h 9.16469 z m -11.53711,-14.16952 q 0,-1.88493 -1.00746,-1.88493 h -3.60738 l 2.56742,5.10232 0.81247,-0.81247 q 1.23495,-1.23496 1.23495,-2.40492 z"
         id="path277" />
      <path
         d="m 136.56867,129.4153 h -7.27975 l -12.86956,12.57706 c -1.99326,1.94993 -4.539,2.9249 -7.63723,2.9249 -0.77997,0 -21.828029,-3.03748 -22.391343,-3.25414 1.148294,-0.30332 22.716333,2.12751 23.951283,1.4342 1.23496,-0.67164 2.55658,-1.68994 3.96487,-3.05489 l 9.74966,-9.48967 c 1.68994,-1.64661 2.53491,-3.00073 2.53491,-4.06236 0,-0.23833 -0.53081,-1.41912 -1.59244,-3.54238 l -1.42995,-2.8924 c -1.10497,-2.23159 -1.65745,-3.72654 -1.65745,-4.48485 0,-1.32162 0.53082,-2.57824 1.59245,-3.76987 l 4.02986,-3.86736 c -0.30332,1.01829 -0.45498,1.86326 -0.45498,2.53491 0,0.80164 0.46582,2.12326 1.39745,3.96486 l 2.14492,4.28985 c 1.14829,2.33992 1.72244,4.06236 1.72244,5.16733 0,0.34665 -0.0108,0.56331 -0.0325,0.64997 h 4.25736 z"
         id="path279"
         sodipodi:nodetypes="cccsccccsccsccsccsccc" />
      <path
         d="m 117.32933,128.57032 c -0.43331,0.56332 -2.01492,0.84498 -4.74483,0.84498 -1.58161,0 -2.90324,-0.0975 -3.96487,-0.29249 -1.06163,-0.21666 -1.91743,-0.56332 -2.56741,-1.03997 -0.62831,-0.49831 -1.08329,-1.14829 -1.36495,-1.94993 -0.25999,-0.80164 -0.38999,-1.78744 -0.38999,-2.9574 v -20.3443 c 0,-1.38661 -1.24579,-4.279012 -3.73737,-8.677197 1.66828,0 1.22148,-29.24536 4.3197,-33.058562 l 2.83006,58.472689 c 0.0524,1.08235 0.0975,2.03659 0.29249,2.8599 0.19499,0.8233 0.53081,1.54911 1.00746,2.17742 0.47665,0.62831 1.10497,1.18079 1.88494,1.65744 0.80163,0.47665 1.79826,0.90997 2.98989,1.29996 0.41165,0.12999 0.89914,0.27082 1.46245,0.42248 0.58498,0.15167 1.24579,0.34666 1.98243,0.58498 z"
         id="path281"
         sodipodi:nodetypes="cscccssccssscccc" />
      <path
         d="m 97.635014,126.55539 c 0,0.49832 -0.0325,0.92081 -0.0975,1.26746 -0.04333,0.34665 -0.151663,0.69331 -0.324989,1.03996 -0.173327,0.34666 -0.444151,0.71498 -0.812472,1.10497 -0.346655,0.38999 -0.812472,0.86664 -1.397452,1.42995 l -5.037326,4.74483 c -0.151661,-0.64997 -0.47665,-1.36495 -0.974966,-2.14492 -0.498316,-0.77997 -1.083296,-1.50578 -1.754939,-2.17743 -0.649978,-0.69331 -1.332455,-1.26745 -2.04743,-1.72244 -0.714975,-0.45498 -1.354119,-0.68247 -1.917433,-0.68247 H 50.83663 c 5.624221,-2.74501 15.379634,-19.21212 19.063311,-10.58896 2.25413,3.81703 7.734122,-1.30563 12.298106,-1.30563 l -2.144926,2.20992 c -0.454985,0.47665 -0.844971,0.85581 -1.16996,1.13746 -0.303323,0.28166 -45.332384,-32.210551 -45.657373,-32.058891 -0.303322,0.15166 44.064929,32.968861 43.674942,33.033861 -0.368321,0.0433 -13.458482,-25.322198 -13.316192,-24.832799 l 7.238902,24.897799 c 0.19499,0.67066 -1.451617,-0.0433 -1.949933,-0.12999 -0.498316,-0.0867 -0.931634,-0.24916 -1.299955,-0.48748 -0.346655,-0.23833 -0.660811,-0.57415 -0.942468,-1.00747 -0.281657,-0.43332 -11.916041,-17.59516 -12.262696,-18.28847 l 9.045308,19.03595 c -0.649978,0.84497 -0.974967,1.33245 -0.974967,1.46244 0,0.23833 0.065,0.47665 0.194994,0.71498 0.151661,0.23833 0.346654,0.45499 0.584979,0.64998 0.238325,0.19499 0.498316,0.35749 0.779973,0.48748 0.303323,0.12999 0.606646,0.19499 0.909969,0.19499 h 18.264369 c 1.018298,0 2.426583,0.84497 4.224854,2.53492 0.649977,0.62831 1.278289,1.26745 1.884935,1.91743 0.606646,0.64998 1.224125,1.28912 1.852436,1.91743 0.368321,-0.49831 0.552481,-0.99663 0.552481,-1.49494 0,-0.41165 -0.357488,-1.35412 -1.072463,-2.82741 l -1.429951,-2.8924 c -1.104961,-2.23159 -1.657442,-3.72653 -1.657442,-4.48484 0,-1.32162 0.530815,-2.57824 1.592445,-3.76987 l 4.02986,-3.86737 c -0.303323,1.0183 -0.454984,1.86327 -0.454984,2.53491 0,0.80164 0.465817,2.12326 1.397452,3.96487 l 2.144926,4.28985 c 0.931635,1.9066 1.397452,3.30405 1.397452,4.19235 z m -18.166873,12.70707 c 0,0.56331 -0.563314,1.71161 -1.689942,3.44488 -0.823305,-1.10497 -1.9066,-1.93911 -3.249887,-2.50242 -0.953301,-0.38999 -1.429951,-0.90997 -1.429951,-1.55994 0,-0.51999 1.267456,-1.80911 3.802369,-3.86737 0.02167,0.38999 0.173328,0.77997 0.454984,1.16996 0.281657,0.41165 0.574147,0.80164 0.87747,1.16996 0.303323,0.38999 0.58498,0.75831 0.844971,1.10496 0.259991,0.36832 0.389986,0.71498 0.389986,1.03997 z"
         id="path283"
         sodipodi:nodetypes="scscccscsscccccccssscsccscscsscscsccsccsccsssccsccccs" />
      <path
         style="fill:none;fill-rule:evenodd;stroke:#000000;stroke-width:1.165;stroke-linecap:butt;stroke-linejoin:miter;stroke-dasharray:none;stroke-opacity:0.685567"
         d="M 12.452251,158.66244 C 42.716782,172.85068 -0.25842956,64.781193 44.49842,51.457955 91.396736,37.497244 225.30617,117.09054 222.4425,80.063508"
         id="path492"
         inkscape:connector-type="polyline"
         inkscape:connector-curvature="0"
         sodipodi:nodetypes="csc" />
      <g
         aria-label="ALARAB"
         transform="scale(0.80791269,1.2377575)"
         id="text1225"
         style="font-size:48.4px;font-family:'Curlz MT';-inkscape-font-specification:'Curlz MT';stroke-width:1.165;stroke-opacity:0.685567;stop-color:#000000">
        <path
           d="m 87.829833,160.37843 c -1.433724,0.69323 -3.411003,1.15013 -5.931836,1.3707 -1.055599,-4.60052 -1.701562,-9.35859 -1.93789,-14.27422 -0.661719,0.063 -1.733074,0.0945 -3.214063,0.0945 -2.505078,0 -4.663542,-0.14967 -6.475391,-0.44902 -0.850781,4.44297 -2.079688,7.84609 -3.686719,10.20937 -1.591276,2.36329 -3.474023,3.54493 -5.648242,3.54493 -1.087109,0 -2.056055,-0.51205 -2.906836,-1.53614 -0.835026,-1.03984 -1.252539,-2.1427 -1.252539,-3.30859 0,-0.94531 0.378125,-1.96152 1.134375,-3.04863 0.75625,-1.10287 1.567643,-1.6543 2.43418,-1.6543 0.456901,0 0.913802,0.25208 1.370703,0.75625 0.472656,0.48841 0.708984,0.96895 0.708984,1.4416 0,0.55143 -0.16543,1.1265 -0.496289,1.7252 -0.330859,0.58294 -0.72474,0.87441 -1.181641,0.87441 -0.06302,0 -0.181184,-0.0473 -0.354492,-0.1418 0.456901,-0.34661 0.685352,-0.77988 0.685352,-1.2998 0,-0.33086 -0.118164,-0.65384 -0.354492,-0.96895 -0.236329,-0.33086 -0.504167,-0.49629 -0.803516,-0.49629 -6.117431,2.17499 4.201144,7.31236 6.80625,1.5834 0.882292,-2.64687 1.323438,-5.3804 1.323438,-8.20058 -5.293751,-1.1974 -7.940626,-3.00925 -7.940626,-5.43555 0,-0.69323 -46.726496,-11.57827 -46.301105,-12.14546 0.441146,-0.56719 49.446055,14.74904 49.92376,14.53147 l 2.598044,-1.18325 c -0.551432,0.66172 -0.827148,1.02355 -0.827148,1.87433 0,1.1974 -2.967248,-1.3125 -1.895894,-0.43021 1.071354,0.88229 2.536588,1.53613 4.395703,1.96152 -0.09453,-1.21315 -0.141797,-2.4263 -0.141797,-3.63945 0,-2.42631 0.307227,-4.42722 0.92168,-6.00274 0.614453,-1.59127 1.646419,-3.00136 3.095898,-4.23027 1.449479,-1.24467 3.080144,-2.16635 4.891993,-2.76504 1.811849,-0.61445 3.663086,-0.92168 5.553711,-0.92168 1.134375,0 1.796093,0.0158 1.985156,0.0473 -1.386458,6.45964 -2.158463,12.18666 -2.316015,17.18106 0.283593,-0.063 0.716861,-0.19692 1.299804,-0.40176 l 0.09453,2.07969 c -0.677474,0.063 -1.142253,0.11027 -1.394336,0.1418 v 1.70156 c 0,5.01015 0.307226,8.79928 0.921679,11.36738 1.165885,-0.0315 2.709896,-0.43329 4.632032,-1.20527 z m -7.113476,-31.00625 c -2.694141,-0.0945 -4.915625,0.80351 -6.664454,2.69414 -1.733073,1.89062 -2.851692,5.84518 -3.355859,11.86367 -0.07878,1.0556 -0.157552,1.81185 -0.236328,2.26875 1.307682,0.14179 2.339648,0.21269 3.095898,0.21269 1.685807,0 3.789128,-0.18118 6.309961,-0.54355 -0.07878,-1.87487 -0.118164,-3.34011 -0.118164,-4.3957 0,-4.28542 0.322982,-8.31875 0.968946,-12.1 z"
           id="path1277"
           sodipodi:nodetypes="cccsccscscscscscsccccscscsscscccscccccscccccccscsc" />
        <path
           d="m 105.12905,155.01378 q 0.3545,-0.37813 0.80352,-0.37813 0.96894,0 0.96894,1.63067 0,0.61445 -0.73261,1.41797 -0.70899,0.77988 -1.39434,0.77988 -1.11074,0 -1.84336,-0.87441 -0.70898,-0.87442 -0.70898,-2.43418 0,-1.20528 0.82715,-2.15059 0.82714,-0.94531 1.77246,-0.94531 1.5834,0 3.00136,1.79609 1.41797,1.77246 1.41797,3.97031 0,4.34844 -4.70293,4.34844 -1.91425,0 -5.600974,-0.75625 -3.686719,-0.73262 -5.624609,-0.73262 -1.796094,0 -4.750196,0.33086 l 0.09453,-1.11074 4.11211,-0.18906 q 0.259961,-1.86699 0.259961,-9.59492 0,-8.76778 -1.465235,-18.90625 -1.34707,0 -3.923047,0.14179 l 0.09453,-1.27617 q 3.025,0.11816 5.790039,0.11816 2.292383,0 5.104688,-0.44902 v 1.34707 h -3.426758 q 0.283593,5.55371 0.283593,9.83125 0,7.11348 -1.394335,18.64629 1.299804,0 4.750195,0.30723 3.450395,0.30722 4.632035,0.30722 1.93789,0 3.35586,-0.85078 1.4416,-0.87441 1.4416,-2.05605 0,-1.48887 -0.61446,-2.48145 -0.61445,-0.99257 -1.72519,-0.99257 -1.27617,0 -2.19785,0.51992 -0.89805,0.51992 -0.89805,1.46523 0,0.89805 0.42539,1.13438 0.44902,0.21269 1.41797,0.21269 1.41797,0 1.41797,-0.87441 0,-0.54356 -0.96895,-1.25254 z"
           id="path1279" />
        <path
           d="m 140.15288,160.37843 q -2.15058,1.03984 -5.93183,1.3707 -1.5834,-6.90078 -1.93789,-14.27422 -0.99258,0.0945 -3.21406,0.0945 -3.75762,0 -6.4754,-0.44902 -1.27617,6.66445 -3.68671,10.20937 -2.38692,3.54493 -5.64825,3.54493 -1.63066,0 -2.90683,-1.53614 -1.25254,-1.55976 -1.25254,-3.30859 0,-1.41797 1.13437,-3.04863 1.13438,-1.6543 2.43418,-1.6543 0.68535,0 1.37071,0.75625 0.70898,0.73262 0.70898,1.4416 0,0.82715 -0.49629,1.7252 -0.49629,0.87441 -1.18164,0.87441 -0.0945,0 -0.35449,-0.1418 0.68535,-0.51992 0.68535,-1.2998 0,-0.49629 -0.35449,-0.96895 -0.35449,-0.49629 -0.80352,-0.49629 -2.22148,0 -2.22148,1.98516 0,1.81973 0.99258,2.69414 0.99257,0.85078 3.35586,0.85078 3.37949,0 4.67929,-3.94668 1.32344,-3.97031 1.32344,-8.20058 -7.94063,-1.7961 -7.94063,-5.43555 0,-1.03984 0.63809,-1.89063 0.66172,-0.85078 1.5834,-0.85078 h 0.49629 q -0.82715,0.99258 -0.82715,2.26875 0,1.7961 1.60703,3.11954 1.60703,1.32343 4.3957,1.96152 -0.14179,-1.81973 -0.14179,-3.63945 0,-3.63946 0.92168,-6.00274 0.92168,-2.38691 3.0959,-4.23027 2.17421,-1.867 4.89199,-2.76504 2.71777,-0.92168 5.55371,-0.92168 1.70156,0 1.98516,0.0473 -2.07969,9.68946 -2.31602,17.18106 0.42539,-0.0945 1.2998,-0.40176 l 0.0945,2.07969 q -1.01621,0.0945 -1.39434,0.1418 v 1.70156 q 0,7.51523 0.92168,11.36738 1.74883,-0.0473 4.63203,-1.20527 z m -7.11347,-31.00625 q -4.04121,-0.1418 -6.66446,2.69414 -2.5996,2.83593 -3.35585,11.86367 -0.11817,1.5834 -0.23633,2.26875 1.96152,0.21269 3.0959,0.21269 2.52871,0 6.30996,-0.54355 -0.11817,-2.81231 -0.11817,-4.3957 0,-6.42813 0.96895,-12.1 z"
           id="path1281" />
        <path
           d="m 165.2273,161.98546 q 1.13438,0.0709 1.13438,0.61445 0,0.63809 -0.70899,1.27617 -0.70898,0.63809 -1.48887,0.63809 -0.92168,0 -1.77246,-0.56719 -0.82715,-0.56719 -0.82715,-1.32344 0,-1.08711 1.03985,-2.07968 1.03984,-1.01621 2.19785,-1.01621 1.86699,0 3.11953,0.96894 1.27617,0.96895 1.27617,2.36328 0,1.63067 -1.72519,3.07227 -1.7252,1.46523 -4.13574,1.46523 -2.26875,0 -3.66309,-1.3707 -1.3707,-1.34707 -1.3707,-3.49766 0,-1.20527 0.40175,-3.82851 0.42539,-2.64688 0.42539,-5.38828 0,-7.25528 -8.55507,-7.25528 l -0.0945,-0.70898 q 7.7752,-1.96153 7.7752,-8.62598 0,-2.67051 -2.33965,-4.34844 -2.33965,-1.70156 -5.19922,-1.70156 -0.99258,0 -2.31601,0.1418 -0.59082,6.42812 -0.59082,19.21347 0,1.22891 0.14179,8.48418 2.03243,0 4.79746,-0.87441 v 1.29981 q -2.6705,0.59082 -5.31738,0.59082 -1.2289,0 -4.84472,0.47265 v -1.34707 l 4.20664,-0.0945 q -1.7252,-18.2918 -2.17422,-27.34316 l -3.49766,0.56718 v -1.11074 q 7.23164,-1.06348 10.75293,-1.06348 4.37207,0 7.25527,2.05606 2.90684,2.05605 2.90684,4.41934 0,2.33964 -2.24512,4.89199 -2.22148,2.55234 -6.21543,4.15937 4.27754,0.54356 6.38086,1.98516 2.12696,1.4416 2.12696,4.6084 0,1.74883 -1.32344,5.29375 -1.32344,3.54492 -1.32344,5.69551 0,1.74882 1.11074,2.83593 1.11075,1.08711 3.04864,1.08711 1.65429,0 2.76504,-1.03984 1.11074,-1.01621 1.11074,-2.31602 0,-3.04863 -2.62324,-3.04863 -0.54356,0 -1.03985,0.51992 -0.47265,0.51992 -0.47265,1.18164 0,0.75625 0.33085,1.25254 0.3545,0.49629 0.80352,0.49629 0.80352,0 0.75625,-1.70156 z"
           id="path1283" />
        <path
           d="m 199.92027,160.37843 q -2.15058,1.03984 -5.93183,1.3707 -1.5834,-6.90078 -1.93789,-14.27422 -0.99258,0.0945 -3.21407,0.0945 -3.75761,0 -6.47539,-0.44902 -1.27617,6.66445 -3.68672,10.20937 -2.38691,3.54493 -5.64824,3.54493 -1.63066,0 -2.90684,-1.53614 -1.25253,-1.55976 -1.25253,-3.30859 0,-1.41797 1.13437,-3.04863 1.13438,-1.6543 2.43418,-1.6543 0.68535,0 1.3707,0.75625 0.70899,0.73262 0.70899,1.4416 0,0.82715 -0.49629,1.7252 -0.49629,0.87441 -1.18164,0.87441 -0.0945,0 -0.35449,-0.1418 0.68535,-0.51992 0.68535,-1.2998 0,-0.49629 -0.35449,-0.96895 -0.3545,-0.49629 -0.80352,-0.49629 -2.22148,0 -2.22148,1.98516 0,1.81973 0.99257,2.69414 0.99258,0.85078 3.35586,0.85078 3.3795,0 4.6793,-3.94668 1.32344,-3.97031 1.32344,-8.20058 -7.94063,-1.7961 -7.94063,-5.43555 0,-1.03984 0.63809,-1.89063 0.66172,-0.85078 1.5834,-0.85078 h 0.49629 q -0.82715,0.99258 -0.82715,2.26875 0,1.7961 1.60703,3.11954 1.60703,1.32343 4.3957,1.96152 -0.14179,-1.81973 -0.14179,-3.63945 0,-3.63946 0.92167,-6.00274 0.92168,-2.38691 3.0959,-4.23027 2.17422,-1.867 4.892,-2.76504 2.71777,-0.92168 5.55371,-0.92168 1.70156,0 1.98515,0.0473 -2.07968,9.68946 -2.31601,17.18106 0.42539,-0.0945 1.2998,-0.40176 l 0.0945,2.07969 q -1.01621,0.0945 -1.39433,0.1418 v 1.70156 q 0,7.51523 0.92168,11.36738 1.74883,-0.0473 4.63203,-1.20527 z m -7.11347,-31.00625 q -4.04122,-0.1418 -6.66446,2.69414 -2.59961,2.83593 -3.35586,11.86367 -0.11816,1.5834 -0.23633,2.26875 1.96153,0.21269 3.0959,0.21269 2.52871,0 6.30996,-0.54355 -0.11816,-2.81231 -0.11816,-4.3957 0,-6.42813 0.96895,-12.1 z"
           id="path1285" />
        <path
           d="m 212.23296,129.41944 q 5.88457,0.54356 8.69688,3.00137 2.8123,2.45781 2.8123,5.36465 0,2.83594 -2.8123,5.43554 -2.78868,2.59961 -6.80625,3.3795 3.28496,0.47265 5.41191,2.22148 2.12695,1.7252 2.12695,3.73399 0,1.01621 -0.80351,2.36328 -0.80352,1.34707 -2.19785,2.43418 -1.39434,1.06347 -3.42676,1.70156 -2.00879,0.61445 -3.52129,0.82715 -1.5125,0.18906 -5.27012,0.18906 -1.67793,0 -2.83594,-0.0709 l 0.2836,-1.34707 q 1.89062,0.37813 4.23027,0.37813 1.06348,-8.20059 1.06348,-16.11758 0,-6.3336 -0.44903,-12.57266 -8.36601,0.54356 -8.36601,5.95547 0,2.22148 2.55234,2.22148 0.47266,0 1.27617,-0.49628 0.82715,-0.49629 0.82715,-1.01622 0,-0.16542 -0.30722,-0.28359 -0.2836,-0.1418 -0.51993,-0.1418 -0.44902,0 -0.92168,0.61446 -0.40175,-0.11817 -0.40175,-0.66172 0,-0.92168 1.5125,-0.92168 0.51992,0 0.87441,0.47266 0.37813,0.47265 0.37813,1.06347 0,1.13438 -0.85079,1.84336 -0.85078,0.68535 -1.91425,0.68535 -1.37071,0 -2.88321,-1.2289 -1.5125,-1.25254 -1.5125,-2.69414 0,-2.17422 2.57598,-3.97032 2.57598,-1.79609 7.58613,-2.26875 0,-2.6705 -0.33086,-4.56113 2.67051,0 3.97032,0.35449 0,2.85957 -0.0473,4.11211 z m -0.21269,16.59024 q 4.34843,0 6.28632,-2.45782 1.96153,-2.48144 1.96153,-4.65566 0,-3.37949 -1.41797,-5.10469 -1.39434,-1.74883 -2.71777,-2.41054 -1.29981,-0.68536 -3.94668,-1.03985 0,3.26133 -0.73262,11.69824 -0.70899,8.43692 -1.98516,16.8502 2.74141,0.16543 5.79004,-1.25254 3.07227,-1.4416 3.07227,-4.4666 0,-6.00274 -6.30996,-6.00274 z"
           id="path1287" />
      </g>
    </g>
  </g>
</svg>
