<?xml version="1.0" encoding="UTF-8" standalone="no"?>
<!-- Created with Inkscape (http://www.inkscape.org/) -->

<svg
   width="210mm"
   height="297mm"
   viewBox="0 0 210 297"
   version="1.1"
   id="svg5"
   xml:space="preserve"
   inkscape:version="1.2.2 (732a01da63, 2022-12-09)"
   sodipodi:docname="drawing-13.svg"
   xmlns:inkscape="http://www.inkscape.org/namespaces/inkscape"
   xmlns:sodipodi="http://sodipodi.sourceforge.net/DTD/sodipodi-0.dtd"
   xmlns="http://www.w3.org/2000/svg"
   xmlns:svg="http://www.w3.org/2000/svg"><sodipodi:namedview
     id="namedview7"
     pagecolor="#ffffff"
     bordercolor="#000000"
     borderopacity="0.25"
     inkscape:showpageshadow="2"
     inkscape:pageopacity="0.0"
     inkscape:pagecheckerboard="0"
     inkscape:deskcolor="#d1d1d1"
     inkscape:document-units="mm"
     showgrid="false"
     inkscape:zoom="0.50333193"
     inkscape:cx="599.00829"
     inkscape:cy="562.25322"
     inkscape:window-width="1360"
     inkscape:window-height="745"
     inkscape:window-x="-8"
     inkscape:window-y="-8"
     inkscape:window-maximized="1"
     inkscape:current-layer="layer1" /><defs
     id="defs2"><clipPath
       clipPathUnits="userSpaceOnUse"
       id="clipPath1893"><path
         id="path1895"
         style="fill:#ff0000;fill-opacity:1;fill-rule:nonzero;stroke:none;stroke-width:0.264583"
         d="M 76.877995,98.018822 V 122.2313 H 138.4856 V 98.018822 Z m 50.845475,5.526278 c 0.14869,-0.002 0.29801,10e-4 0.44855,0.0108 h 3.24373 2.92644 c 5.20377,0 5.20377,5.25653 0,5.25653 h -2.92644 -3.24373 c -0.1986,-0.022 -0.38841,-0.0161 -0.57412,0.005 0.0169,1.10154 -0.90119,2.36479 -2.98328,3.10471 -0.44739,0.15898 -0.95707,0.29494 -1.41542,0.50436 -1.28575,4.64592 -6.34622,3.30241 -5.01933,-1.59422 0.256,-0.94474 0.57068,-1.79096 1.43143,-2.36678 0.13858,-0.0884 0.27903,-0.17453 0.42065,-0.25838 -0.43926,-0.35271 -0.43,-0.88411 0.4377,-1.71203 0.54081,-0.51603 1.07439,-1.00724 1.7849,-1.28365 0.81986,-0.33428 1.59673,-0.77207 2.43706,-1.06091 0.99273,-0.30738 1.991,-0.59073 3.03186,-0.60565 z m -17.32194,0.002 c 0.26998,-0.001 0.54047,0.002 0.81132,0.009 4.3651,0.10428 5.06722,3.80106 2.10685,4.932 1.89689,0.911 1.86675,3.71437 -1.49345,5.04052 -0.41268,0.16287 -0.20096,0.0709 -0.63407,0.2806 -0.98852,0.54532 -1.99135,1.07809 -3.07165,1.42162 -0.98881,0.39525 -1.98409,0.74525 -3.04581,0.88935 -1.02839,0.21612 -2.07187,0.31388 -3.09697,0.54364 -0.71271,0.19723 -1.37044,0.42574 -1.91926,0.94826 -1.981311,1.88642 -3.834847,1.57137 -4.578014,0.35192 -1.341282,0.8024 -2.73041,1.52576 -4.012158,2.42776 -2.43587,1.71418 -4.34604,0.993 -4.746479,-0.5116 -0.09285,0.0181 -0.185529,0.0369 -0.278538,0.0543 -0.867537,0.096 -1.71084,0.22563 -2.531628,0.50385 -0.09643,0.0809 -0.166444,0.12877 -0.182933,0.11368 -0.01132,-0.0104 -0.01921,-0.0171 -0.03049,-0.0274 -0.0053,0.003 -0.01045,0.007 -0.01447,0.01 0.0063,0.009 0.01283,0.0186 0.01913,0.0279 -0.05791,5.3e-4 -0.05518,-0.004 -0.01913,-0.0279 -0.01349,-0.02 -0.02732,-0.0399 -0.04082,-0.0599 -0.349692,-0.31944 -0.661527,-0.60052 -0.957048,-0.86713 -0.45823,0.73148 -0.365125,1.40745 1.192691,1.82108 0.199173,0.0529 -0.253646,0.0609 -0.350367,0.11627 -3.907237,2.23921 -5.932209,-2.17126 -3.147094,-4.26589 -0.252524,-0.45538 -0.112138,-0.7643 0.424781,-1.11673 l 5.29e-4,-5.3e-4 c 0.06558,-0.0748 0.223157,-0.2397 0.395843,-0.42273 1.012968,-0.89956 1.839349,-1.96921 2.719729,-2.99154 0.990822,-1.23375 2.275781,-2.05831 3.728455,-2.63756 0.233815,-0.0827 0.47071,-0.15031 0.709001,-0.2124 0.01744,-1.13048 1.011275,-2.27957 3.116607,-2.62102 0.556591,-0.40653 1.319969,-0.72633 2.303735,-0.88522 0.171609,-0.0278 0.343085,-0.0555 0.514696,-0.0832 1.159833,-0.21973 2.301574,-0.52232 3.466455,-0.71676 1.023628,-0.17191 2.065208,-0.25132 3.067507,-0.53794 1.25605,-0.34858 2.50523,-0.72717 3.79719,-0.92449 1.11099,-0.2066 2.23066,-0.31135 3.35225,-0.44443 0.80749,-0.0939 1.61369,-0.13387 2.42362,-0.13694 z m 12.42043,9.07955 c -0.1038,0.0643 -0.2033,0.13406 -0.29507,0.21239 0.10406,-0.0268 0.20338,-0.10663 0.29507,-0.21239 z" /></clipPath><clipPath
       clipPathUnits="userSpaceOnUse"
       id="clipPath1927"><path
         id="path1929"
         style="fill:#ff0000;fill-opacity:1;fill-rule:nonzero;stroke:none;stroke-width:0.264583"
         d="m 58.658435,127.96532 v 6.94376 h 0.938961 c -0.542579,-1.3717 0.467937,-3.11674 3.323312,-3.50315 0.871707,-0.11797 1.747515,-0.20048 2.624646,-0.26613 0.483838,-0.4845 1.184751,-0.91253 2.128551,-1.21233 0.406464,-0.12909 0.203645,-0.0571 0.608232,-0.21704 1.141045,-0.54524 2.241196,-1.17489 3.527433,-1.31723 0.941658,-0.11712 1.883868,-0.14079 2.829285,-0.13901 0.31514,5.3e-4 0.630267,0.004 0.946195,0.008 h 3.036509 c 1.635874,0 2.756773,0.51963 3.364135,1.23196 1.11061,0.2706 2.115352,0.86409 3.04736,1.59526 1.619911,1.27082 2.023501,2.7359 1.68775,3.81992 h 1.939417 v -6.94375 z m 21.938197,6.62595 c -0.06748,5.3e-4 -0.139343,0.005 -0.216525,0.015 -1.067485,0.0231 -2.136902,0.0458 -3.200323,0.14832 -0.371623,0.0419 -0.741863,0.0926 -1.110009,0.15451 h 5.358847 c -0.248822,-0.20523 -0.481695,-0.32102 -0.83199,-0.31781 z" /></clipPath></defs><g
     inkscape:label="Layer 1"
     inkscape:groupmode="layer"
     id="layer1"><path
       style="display:inline;fill:#525ff3;fill-rule:evenodd;stroke:#a41010;stroke-width:0.965;stroke-linecap:butt;stroke-linejoin:miter;stroke-dasharray:none;stroke-opacity:1;fill-opacity:1"
       d="m 58.871478,133.51858 c 9.815218,-4.83736 19.630435,-8.88955 29.445653,1.05133"
       id="path1573"
       inkscape:connector-type="polyline"
       inkscape:connector-curvature="0"
       sodipodi:nodetypes="cc"
       clip-path="url(#clipPath1927)" /><path
       style="fill:#525ff3;fill-rule:evenodd;stroke:#511616;stroke-width:0.965;stroke-linecap:butt;stroke-linejoin:miter;stroke-dasharray:none;stroke-opacity:1;fill-opacity:1"
       d="m 58.874336,132.99292 c 3.485985,-3.21854 11.368554,-11.2795 18.923892,-13.14159"
       id="path1671"
       inkscape:connector-type="polyline"
       inkscape:connector-curvature="0"
       sodipodi:nodetypes="cc" /><path
       style="fill:#525ff3;fill-rule:evenodd;stroke:#000000;stroke-width:0.965;stroke-linecap:butt;stroke-linejoin:miter;stroke-opacity:1;stroke-dasharray:none;fill-opacity:1"
       d="M 76.221237,123.00531 C 76.034198,93.301028 85.780484,89.112849 93.568141,82.003539"
       id="path1673"
       inkscape:connector-type="polyline"
       inkscape:connector-curvature="0"
       sodipodi:nodetypes="cc" /><path
       style="display:inline;fill:#525ff3;fill-rule:evenodd;stroke:#000000;stroke-width:0.965;stroke-linecap:butt;stroke-linejoin:miter;stroke-opacity:1;stroke-dasharray:none;fill-opacity:1"
       d="m 91.465487,83.580531 c -4.555746,-7.359286 -2.102664,-8.410626 7.359289,-3.153983"
       id="path1729"
       inkscape:connector-type="polyline"
       inkscape:connector-curvature="0"
       sodipodi:nodetypes="cc" /><path
       style="fill:#525ff3;fill-rule:evenodd;stroke:#000000;stroke-width:0.965;stroke-linecap:butt;stroke-linejoin:miter;stroke-opacity:1;stroke-dasharray:none;fill-opacity:1"
       d="M 93.042477,83.054866 C 112.95309,70.283059 148.20049,82.183642 144.55752,100.40177"
       id="path1731"
       inkscape:connector-type="polyline"
       inkscape:connector-curvature="0"
       sodipodi:nodetypes="cc" /><path
       style="fill:#525ff3;fill-rule:evenodd;stroke:#000000;stroke-width:0.965;stroke-linecap:butt;stroke-linejoin:miter;stroke-opacity:1;stroke-dasharray:none;fill-opacity:1"
       d="m 145.08318,100.40177 c 4.48403,9.56544 0.74494,7.75378 -7.35929,4.73097"
       id="path1733"
       inkscape:connector-type="polyline"
       inkscape:connector-curvature="0"
       sodipodi:nodetypes="cc" /><path
       style="fill:#525ff3;fill-rule:evenodd;stroke:#000000;stroke-width:0.965;stroke-linecap:butt;stroke-linejoin:miter;stroke-dasharray:none;stroke-opacity:1;fill-opacity:1"
       d="m 138.24955,105.65841 c -26.40526,-14.808682 -45.779191,-5.32 -60.976986,16.29557"
       id="path1735"
       inkscape:connector-type="polyline"
       inkscape:connector-curvature="0"
       sodipodi:nodetypes="cc"
       clip-path="url(#clipPath1893)" /><path
       style="fill:#525ff3;fill-rule:evenodd;stroke:#000000;stroke-width:0.965;stroke-linecap:butt;stroke-linejoin:miter;stroke-opacity:1;stroke-dasharray:none;fill-opacity:1"
       d="m 130.3646,103.55575 c -13.84248,-0.92511 -27.68495,-0.25279 -41.527432,5.7823"
       id="path1737"
       inkscape:connector-type="polyline"
       inkscape:connector-curvature="0"
       sodipodi:nodetypes="cc" /><path
       style="fill:#525ff3;fill-rule:evenodd;stroke:#000000;stroke-width:0.965;stroke-linecap:butt;stroke-linejoin:miter;stroke-opacity:1;stroke-dasharray:none;fill-opacity:1"
       d="m 124.58245,103.0254 c -16.41585,21.88148 -8.40947,-2.66078 -11.5649,-1.04195"
       id="path1739"
       inkscape:connector-type="polyline"
       inkscape:connector-curvature="0"
       sodipodi:nodetypes="cc" /><path
       style="display:inline;fill:#525ff3;fill-rule:evenodd;stroke:#000000;stroke-width:0.965;stroke-linecap:butt;stroke-linejoin:miter;stroke-dasharray:none;stroke-opacity:1;fill-opacity:1"
       d="m 76.746903,120.37699 c 3.992763,3.16332 12.098094,9.24097 11.038938,13.66726"
       id="path1741"
       inkscape:connector-type="polyline"
       inkscape:connector-curvature="0"
       sodipodi:nodetypes="cc" /><path
       style="fill:none;fill-rule:evenodd;stroke:#000000;stroke-width:0.264583px;stroke-linecap:butt;stroke-linejoin:miter;stroke-opacity:1"
       d="m 63.605309,210.26548 v 0"
       id="path1743"
       inkscape:connector-type="polyline"
       inkscape:connector-curvature="0" /><path
       style="fill:none;fill-rule:evenodd;stroke:#000000;stroke-width:0.264583px;stroke-linecap:butt;stroke-linejoin:miter;stroke-opacity:1"
       d="m -99.876106,173.46903 v 0"
       id="path1745"
       inkscape:connector-type="polyline"
       inkscape:connector-curvature="0" /><path
       style="display:inline;fill:#525ff3;fill-rule:evenodd;stroke:#000000;stroke-width:0.965;stroke-linecap:butt;stroke-linejoin:miter;stroke-dasharray:none;stroke-opacity:1;fill-opacity:1"
       d="M 103.03009,93.042476 87.785841,98.824779"
       id="path1747"
       inkscape:connector-type="polyline"
       inkscape:connector-curvature="0"
       sodipodi:nodetypes="cc" /><path
       style="fill:none;fill-rule:evenodd;stroke:#000000;stroke-width:0.264583px;stroke-linecap:butt;stroke-linejoin:miter;stroke-opacity:1"
       d="m 75.16991,208.16283 v 0"
       id="path1749"
       inkscape:connector-type="polyline"
       inkscape:connector-curvature="0" /><path
       style="display:inline;fill:#525ff3;fill-rule:evenodd;stroke:#000000;stroke-width:0.965;stroke-linecap:butt;stroke-linejoin:miter;stroke-dasharray:none;stroke-opacity:1;fill-opacity:1"
       d="m 87.785841,98.299115 c -4.535378,14.035485 4.14622,2.137865 16.295569,-1.576991"
       id="path1751"
       inkscape:connector-type="polyline"
       inkscape:connector-curvature="0"
       sodipodi:nodetypes="cc" /><path
       style="fill:none;fill-rule:evenodd;stroke:#000000;stroke-width:0.264583px;stroke-linecap:butt;stroke-linejoin:miter;stroke-opacity:1"
       d="m 55.720352,227.08672 v 0"
       id="path1753"
       inkscape:connector-type="polyline"
       inkscape:connector-curvature="0" /><path
       style="fill:none;fill-rule:evenodd;stroke:#000000;stroke-width:0.965;stroke-linecap:butt;stroke-linejoin:miter;stroke-opacity:1;stroke-dasharray:none"
       d="m 59.925664,132.99292 c 10.243066,-7.28554 19.540443,-5.11418 28.385838,1.57699"
       id="path1933"
       inkscape:connector-type="polyline"
       inkscape:connector-curvature="0"
       sodipodi:nodetypes="cc" /><circle
       style="fill:#525ff3;fill-opacity:1;stroke:#511616;stroke-width:0.964999;stroke-dasharray:none;stroke-opacity:1;paint-order:fill markers stroke;stop-color:#000000"
       id="path1987"
       cx="134.30708"
       cy="90.676987"
       r="1.839823" /><path
       style="fill:none;fill-rule:evenodd;stroke:#000000;stroke-width:0.665;stroke-linecap:butt;stroke-linejoin:miter;stroke-dasharray:none;stroke-opacity:1"
       d="m 146.66017,107.76106 -7.88495,-5.7823"
       id="path1989"
       inkscape:connector-type="polyline"
       inkscape:connector-curvature="0"
       sodipodi:nodetypes="cc" /><g
       aria-label="FLAMENGO"
       transform="matrix(0.61027874,0,0,1.6385955,-3.679646,-1.5769911)"
       id="text2054"
       style="font-size:21.5737px;font-family:'Berlin Sans FB Demi';-inkscape-font-specification:'Berlin Sans FB Demi';fill:#0b5cd5;stroke:#10133a;stroke-width:0.664998;stroke-opacity:1;paint-order:fill markers stroke;stop-color:#000000"><path
         d="m 167.71785,75.271889 q 0,0.115874 -0.21068,0.115874 -0.79005,0 -2.40176,-0.136942 -1.60117,-0.136943 -2.40176,-0.136943 -1.01126,0 -1.17981,0.07374 -0.38976,0.179078 -0.38976,1.011267 0,1.000733 0.50564,1.137675 0.21068,0.05267 0.64257,0.05267 0.72685,0 2.17001,-0.07374 1.4537,-0.08427 2.18055,-0.08427 0.34762,0 0.34762,1.85399 0,1.611707 -0.11587,1.875058 -0.0737,0.189612 -0.28442,0.189612 0.13694,0 -0.66365,-0.07374 -1.12714,-0.10534 -3.41302,-0.10534 -0.73739,0 -0.83219,0.01053 -0.53724,0.08427 -0.53724,0.452963 0,1.495833 0.12641,3.444629 0.10534,1.759184 0.10534,1.569571 0,0.273885 -0.66364,0.316021 0.17908,-0.01053 -0.93753,-0.01053 -1.96987,0 -2.5387,-0.136942 -0.30549,-0.07374 -0.30549,-0.326555 0,-1.169278 0.0737,-3.507834 0.0843,-2.349089 0.0843,-3.518367 0,-1.390492 -0.12641,-3.497299 -0.18961,-3.255016 -0.20015,-3.497299 l -0.0105,-0.126408 q -0.0105,-0.263351 0.31602,-0.263351 0.77952,0 2.34909,0.0316 1.58011,0.0316 2.37016,0.0316 0.84272,0 2.52817,-0.126408 1.69598,-0.126408 2.5387,-0.126408 0.5267,0 0.5899,0.431895 0,0.452963 0.0421,1.35889 0.0211,0.231749 0.13694,0.895393 0.10534,0.579372 0.10534,0.895393 z"
         id="path2106"
         style="fill:#0b5cd5;stroke:#10133a;stroke-opacity:1" /><path
         d="m 178.64164,86.796121 q -0.90592,0 -2.35962,-0.04214 -1.89612,-0.04214 -2.35962,-0.05267 l -3.14968,-0.04214 q -0.47403,0.01053 -1.35889,-0.04214 -0.30549,-0.05267 -0.30549,-0.326555 0,-1.14821 0.0316,-3.434095 0.0421,-2.29642 0.0421,-3.444629 0,-1.221948 -0.0737,-3.65531 -0.0737,-2.443895 -0.0737,-3.665843 0,-0.231749 0.31602,-0.231749 0.31602,0 0.93753,0.0316 0.63204,0.0316 0.93753,0.0316 0.34762,0 1.03233,-0.0316 0.68471,-0.04214 1.03234,-0.04214 0.15801,0 0.14747,0.200147 l -0.0105,0.136942 q -0.12641,1.980398 -0.28442,5.951729 l -0.0105,2.780985 q 0,1.348356 0.0105,1.969864 0.0105,0.126408 0.0211,0.252817 0.0105,0.126408 0.15801,0.15801 0.0105,0 0.27388,0 0.94807,0 2.83366,-0.09481 1.89612,-0.105341 2.84419,-0.105341 0.28442,0 0.28442,0.242283 0,1.80132 -0.26336,3.10754 -0.0527,0.273885 -0.22121,0.326555 -0.0527,0.02107 -0.4319,0.02107 z"
         id="path2108"
         style="fill:#0b5cd5;stroke:#10133a;stroke-opacity:1" /><path
         d="m 194.65337,86.353692 q 0,0.189612 -0.26335,0.263351 -0.31602,0.08427 -1.95933,0.08427 -1.50636,0 -1.93826,-0.08427 -0.35816,-0.07374 -0.45296,-0.474032 -0.35816,-1.516901 -0.55831,-1.622241 -0.16854,-0.07374 -2.82312,-0.07374 -1.79078,0 -1.90666,0.09481 -0.17907,0.168545 -0.40029,1.127142 -0.20015,0.874324 -0.48457,0.948063 -0.35815,0.08427 -2.40175,0.08427 -1.61171,0 -1.61171,-0.305487 0,-0.273885 2.38069,-6.731247 2.58084,-6.984064 2.80205,-7.679311 0.12641,-0.400293 0.29496,-0.400293 0.28441,0 0.87432,0.05267 0.60044,0.05267 0.89539,0.05267 0.28442,0 0.83219,-0.0316 0.55831,-0.04214 0.83219,-0.04214 0.20015,0 0.36869,0.347623 0.51617,1.106074 3.01273,7.584504 2.5071,6.520567 2.5071,6.804986 z m -7.46862,-9.596505 q -0.22122,0.463498 -0.74792,2.012001 -0.56884,1.643309 -0.56884,1.927728 0,0.189612 0.63204,0.210681 0.32656,0.02107 1.07447,0.02107 0.69525,0 0.76899,-0.168545 0.0211,-0.05267 0.0211,-0.147476 0,-0.347623 -0.48457,-1.917194 -0.47403,-1.516901 -0.69524,-1.938263 z"
         id="path2110"
         style="fill:#0b5cd5;stroke:#10133a;stroke-opacity:1" /><path
         d="m 211.43409,86.290488 q 0,0.326555 -0.30549,0.326555 h -3.72904 q -0.30549,0 -0.30549,-0.368692 0,-1.063937 0.0737,-3.191812 0.0843,-2.127874 0.0843,-3.191812 0,-0.305487 -0.0948,-0.326555 -0.11587,0.0632 -1.41156,3.255016 -0.75845,1.875058 -1.5169,3.739582 -0.10534,0.242283 -0.26335,0.284419 -0.0527,0.01053 -0.42136,0.01053 -0.54777,0 -0.65311,-0.21068 -0.56884,-1.158744 -1.49583,-3.370891 -0.9902,-2.338555 -1.4853,-3.381425 -0.0211,-0.05267 -0.0948,-0.115874 -0.0737,0.09481 -0.0737,0.305487 0,1.032335 0.0527,3.097006 0.0527,2.06467 0.0527,3.097005 0,0.368692 -0.29495,0.368692 h -3.51837 q -0.21068,0 -0.26335,-0.0632 -0.0421,-0.07374 -0.0421,-0.242282 0,-1.14821 0.10534,-3.444629 0.11587,-2.306954 0.11587,-3.455163 0,-1.221948 -0.10534,-4.582305 -0.0105,-0.874324 -0.0948,-2.601906 l -0.0105,-0.179078 q -0.0105,-0.210681 0.44243,-0.210681 0.57937,0 1.73812,-0.0316 1.15874,-0.04214 1.73811,-0.04214 0.11588,0 0.32656,0.442429 l 3.07593,6.752315 q 0.32656,0.684713 0.54777,0.684713 0.11588,0 0.4951,-0.790053 1.06394,-2.212147 3.14968,-6.668043 0.17908,-0.410827 0.38976,-0.410827 0.30549,0 0.91646,0.0316 0.62151,0.0316 0.93753,0.0316 0.26335,0 0.80059,-0.05267 0.54777,-0.05267 0.81112,-0.05267 0.31602,0 0.31602,0.252816 0,1.243016 -0.0948,3.718514 -0.0843,2.464964 -0.0843,3.70798 0,1.148209 0.0948,3.444629 0.0948,2.296419 0.0948,3.434095 z"
         id="path2112"
         style="fill:#0b5cd5;stroke:#10133a;stroke-opacity:1" /><path
         d="m 224.18027,83.340958 q 0,0.452964 -0.17908,1.664377 -0.18961,1.316755 -0.33709,1.569571 -0.12641,0.200147 -0.34762,0.200147 -0.0948,0 -0.31602,-0.0316 -0.76899,-0.10534 -4.4875,-0.10534 -0.81112,0 -2.41229,-0.01053 -1.60118,-0.01053 -2.40176,-0.01053 -0.34763,0 -0.34763,-0.305487 0,-1.179812 0.12641,-3.539436 0.13695,-2.370157 0.13695,-3.549969 0,-1.20088 -0.12641,-4.476964 -0.0316,-0.842723 -0.11588,-2.517634 l -0.0105,-0.147476 q -0.0211,-0.242283 0.26335,-0.242283 0.77952,0 2.33855,0.04214 1.56958,0.04214 2.34909,0.04214 0.76899,0 2.31749,-0.04214 1.5485,-0.04214 2.31749,-0.04214 0.54777,0 0.63204,0.410827 0.0527,0.242283 0.15801,1.474765 0.11588,1.221948 0.11588,1.485299 0,0.221214 -0.21068,0.221214 -0.0632,0 -0.22122,-0.01053 -2.80205,-0.231748 -5.03527,-0.231748 -0.5583,0 -0.68471,0.26335 -0.0527,0.126409 -0.0527,0.811121 0,0.716314 0.21068,0.948063 0.17908,0.200147 0.68471,0.200147 0.10534,0 0.41083,-0.01053 0.30549,-0.02107 0.50563,-0.02107 1.32729,0 2.68618,-0.07374 0.11588,-0.01053 0.57937,-0.05267 0.35816,-0.04214 0.56884,-0.04214 0.25282,0 0.25282,0.242283 0,-0.221215 -0.18961,1.611707 -0.0843,0.842722 -0.0843,1.685445 0,0.210681 -0.30548,0.210681 0,0 -0.94807,-0.105341 -0.60044,-0.0632 -2.73884,-0.0632 h -1.11661 q -0.4319,0 -0.50564,0.210681 -0.0105,0.05267 -0.0105,0.65311 0,0.800586 0.10534,1.032335 0.17908,0.400293 1.34836,0.474032 -0.0211,0 1.53797,0 0.5583,0 1.65384,-0.09481 1.10607,-0.10534 1.65384,-0.10534 0.23175,0 0.23175,0.379225 z"
         id="path2114"
         style="fill:#0b5cd5;stroke:#10133a;stroke-opacity:1" /><path
         d="m 239.67583,72.164349 q 0,1.20088 -0.10534,3.613173 -0.0948,2.40176 -0.0948,3.613174 v 6.941928 q 0,0.284419 -0.30549,0.284419 -0.25282,0 -0.76898,0.02107 -0.50564,0.02107 -0.75845,0.02107 -0.27389,0 -0.82166,-0.04214 -0.54777,-0.04214 -0.82165,-0.04214 -0.18962,0 -0.45297,-0.347623 -0.75845,-1.021801 -3.41302,-4.529634 -0.72685,-0.979665 -2.21215,-2.886325 -0.0421,-0.0632 -0.15801,-0.126408 -0.0843,0.07374 -0.0843,0.231748 0,1.221948 0.0632,3.665844 0.0737,2.443896 0.0737,3.665843 0,0.368692 -0.28442,0.368692 h -3.64477 q -0.30549,0 -0.30549,-0.326555 0,-1.137676 0.10534,-3.434095 0.11587,-2.29642 0.11587,-3.444629 0,-1.211414 -0.10534,-3.623708 -0.0948,-2.412293 -0.0948,-3.613173 0,-0.231749 0.41082,-0.231749 0.61098,0 1.50637,-0.08427 0.21068,-0.02107 0.83219,-0.136942 0.5267,-0.09481 0.83219,-0.09481 0.12641,0 0.38976,0.358157 l 3.92919,5.382891 q 0.5267,0.726849 1.59064,2.127875 0.26335,0.326555 0.45296,0.326555 0.13695,0 0.13695,-0.821654 0,-1.106074 -0.12641,-3.328755 -0.11588,-2.222681 -0.11588,-3.339288 0,-0.38976 0.22122,-0.38976 0.63204,0 1.90666,-0.05267 1.27462,-0.05267 1.90666,-0.05267 0.20014,0 0.20014,0.326555 z"
         id="path2116"
         style="fill:#0b5cd5;stroke:#10133a;stroke-opacity:1" /><path
         d="m 255.49795,86.279953 q 0.0211,0.284419 -0.29495,0.284419 -0.20015,0 -1.15875,-0.231748 -0.94806,-0.231749 -1.16927,-0.316021 -2.20162,0.86379 -4.22415,0.86379 -3.25502,0 -5.34076,-2.17001 -2.06467,-2.138409 -2.06467,-5.403959 0,-3.339289 2.00147,-5.540902 2.06467,-2.275351 5.36182,-2.275351 1.60117,0 3.01274,0.610974 1.52743,0.674178 2.40175,1.896126 0.17908,0.252817 0.17908,0.358157 0,0.337089 -0.94806,1.516901 -0.93753,1.169277 -1.21141,1.169277 -0.0632,0 -0.48457,-0.431895 -0.51617,-0.516168 -1.0534,-0.800587 -0.80059,-0.431895 -1.76972,-0.431895 -1.5801,0 -2.5071,1.179812 -0.86379,1.085005 -0.86379,2.707246 0,1.717048 0.89539,2.717781 0.927,1.032335 2.62298,1.032335 1.07447,0 2.40176,-0.537235 -0.0316,-0.347624 -0.18962,-1.769718 -0.13694,-1.09554 -0.13694,-1.769718 0,-0.200146 0.13694,-0.242282 0.0527,-0.02107 0.16855,-0.02107 0.30549,0 0.91646,0.0632 0.62151,0.05267 0.93753,0.05267 0.33709,0 1.01127,-0.04214 0.67417,-0.05267 1.01126,-0.05267 0.26335,0 0.26335,0.347623 0,0.505633 -0.0632,1.527434 -0.0527,1.021802 -0.0527,1.527435 0,1.358891 0.20015,4.066137 z"
         id="path2118"
         style="fill:#0b5cd5;stroke:#10133a;stroke-opacity:1" /><path
         d="m 271.60449,79.243219 q 0,3.286619 -2.09627,5.5093 -2.13841,2.254283 -5.4145,2.254283 -3.25501,0 -5.40396,-2.275351 -2.1068,-2.222681 -2.1068,-5.488232 0,-3.276084 2.1068,-5.509299 2.14895,-2.285885 5.40396,-2.285885 3.23395,0 5.39343,2.285885 2.11734,2.254283 2.11734,5.509299 z m -3.9924,-0.02107 q 0,-1.580105 -0.9586,-2.686178 -1.00073,-1.158744 -2.55977,-1.158744 -1.4853,0 -2.51763,1.20088 -1.00073,1.158744 -1.00073,2.66511 0,1.611707 0.93753,2.686179 0.99019,1.127141 2.58083,1.127141 1.4853,0 2.52817,-1.190345 0.9902,-1.137676 0.9902,-2.644043 z"
         id="path2120"
         style="fill:#0b5cd5;stroke:#10133a;stroke-opacity:1" /></g><path
       style="display:inline;fill:none;fill-rule:evenodd;stroke:#000000;stroke-width:1.065;stroke-linecap:butt;stroke-linejoin:miter;stroke-dasharray:none;stroke-opacity:1"
       d="m 49.39,151.88468 c -6.126267,5.31186 -12.03614,9.75813 -16.776462,9.52621"
       id="path2218"
       inkscape:connector-type="polyline"
       inkscape:connector-curvature="0"
       sodipodi:nodetypes="cc" /><path
       style="display:inline;fill:none;fill-rule:evenodd;stroke:#000000;stroke-width:0.965002;stroke-linecap:butt;stroke-linejoin:miter;stroke-dasharray:none;stroke-opacity:1"
       d="M 49.927194,152.45162 C 44.014615,146.67652 37.719206,138.98728 33.127673,139.81741"
       id="path2220"
       inkscape:connector-type="polyline"
       inkscape:connector-curvature="0"
       sodipodi:nodetypes="cc" /><path
       style="fill:none;fill-rule:evenodd;stroke:#000000;stroke-width:0.264583px;stroke-linecap:butt;stroke-linejoin:miter;stroke-opacity:1"
       d="m 86.208848,224.98407 v 1.57699"
       id="path2222"
       inkscape:connector-type="polyline"
       inkscape:connector-curvature="0" /><path
       style="display:inline;fill:none;fill-rule:evenodd;stroke:#000000;stroke-width:0.965004;stroke-linecap:butt;stroke-linejoin:miter;stroke-dasharray:none;stroke-opacity:1"
       d="m 33.116814,139.84645 c 4.192934,5.27103 9.059408,13.53607 -1.051328,21.51241"
       id="path2224"
       inkscape:connector-type="polyline"
       inkscape:connector-curvature="0"
       sodipodi:nodetypes="cc" /><path
       style="fill:none;fill-rule:evenodd;stroke:#000000;stroke-width:0.264583px;stroke-linecap:butt;stroke-linejoin:miter;stroke-opacity:1"
       d="m 31.014159,208.68849 v 0"
       id="path2226"
       inkscape:connector-type="polyline"
       inkscape:connector-curvature="0" /><path
       style="display:inline;fill:none;fill-rule:evenodd;stroke:#000000;stroke-width:1.065;stroke-linecap:butt;stroke-linejoin:miter;stroke-opacity:1;stroke-dasharray:none"
       d="M 49.412389,152.44248 C 224.067,168.14567 149.30364,119.00019 196.07256,101.4531"
       id="path2230"
       inkscape:connector-type="polyline"
       inkscape:connector-curvature="0"
       sodipodi:nodetypes="cc" /><path
       style="fill:none;fill-rule:evenodd;stroke:#000000;stroke-width:0.264583px;stroke-linecap:butt;stroke-linejoin:miter;stroke-opacity:1"
       d="m 47.309735,206.58584 v 0"
       id="path2232"
       inkscape:connector-type="polyline"
       inkscape:connector-curvature="0" /></g></svg>
