<?xml version="1.0" encoding="UTF-8" standalone="no"?>
<!-- Created with Inkscape (http://www.inkscape.org/) -->

<svg
   width="210mm"
   height="297mm"
   viewBox="0 0 210 297"
   version="1.1"
   id="svg5"
   xml:space="preserve"
   inkscape:version="1.2.2 (732a01da63, 2022-12-09)"
   sodipodi:docname="drawing-14.svg"
   xmlns:inkscape="http://www.inkscape.org/namespaces/inkscape"
   xmlns:sodipodi="http://sodipodi.sourceforge.net/DTD/sodipodi-0.dtd"
   xmlns="http://www.w3.org/2000/svg"
   xmlns:svg="http://www.w3.org/2000/svg"><sodipodi:namedview
     id="namedview7"
     pagecolor="#ffffff"
     bordercolor="#000000"
     borderopacity="0.25"
     inkscape:showpageshadow="2"
     inkscape:pageopacity="0.0"
     inkscape:pagecheckerboard="0"
     inkscape:deskcolor="#d1d1d1"
     inkscape:document-units="mm"
     showgrid="false"
     inkscape:zoom="0.50333193"
     inkscape:cx="748.01533"
     inkscape:cy="337.74929"
     inkscape:window-width="1360"
     inkscape:window-height="745"
     inkscape:window-x="-8"
     inkscape:window-y="-8"
     inkscape:window-maximized="1"
     inkscape:current-layer="layer2" /><defs
     id="defs2" /><g
     inkscape:label="Layer 1"
     inkscape:groupmode="layer"
     id="layer1"
     sodipodi:insensitive="true" /><g
     inkscape:groupmode="layer"
     id="layer2"
     inkscape:label="Layer 2"><ellipse
       style="fill:#0d6efd;stroke:#131038;stroke-width:1.07677419;paint-order:fill markers stroke;stop-color:#000000;stroke-dasharray:none"
       id="path1802-3"
       cx="156.64778"
       cy="123.00531"
       rx="9.9876108"
       ry="7.8849559" /><path
       style="fill:#dc3545;fill-rule:evenodd;stroke:#000000;stroke-width:1.068;stroke-linecap:butt;stroke-linejoin:miter;stroke-opacity:1;stroke-dasharray:none"
       d="m 89.362832,140.35221 c 23.051928,0.527 45.549108,-0.19416 63.079648,-12.09027"
       id="path1650"
       inkscape:connector-type="polyline"
       inkscape:connector-curvature="0"
       sodipodi:nodetypes="cc" /><ellipse
       style="fill:#0d6efd;stroke:#131038;stroke-width:1.07677419;paint-order:fill markers stroke;stop-color:#000000;stroke-dasharray:none"
       id="path1802"
       cx="79.375229"
       cy="136.14691"
       rx="9.9876108"
       ry="7.8849559" /><path
       style="fill:#0b5cd5;fill-rule:evenodd;stroke:#000000;stroke-width:1.068;stroke-linecap:butt;stroke-linejoin:miter;stroke-opacity:1;stroke-dasharray:none"
       d="m 166.10973,123.00531 c 6.35236,2.34912 6.2833,-6.08692 6.30797,-11.5646"
       id="path1826"
       inkscape:connector-type="polyline"
       inkscape:connector-curvature="0"
       sodipodi:nodetypes="cc" /><path
       style="fill:#0b5cd5;fill-rule:evenodd;stroke:#000000;stroke-width:1.068;stroke-linecap:butt;stroke-linejoin:miter;stroke-opacity:1;stroke-dasharray:none;fill-opacity:1"
       d="m 173.99469,111.44071 -8.41062,6.30796"
       id="path1828"
       inkscape:connector-type="polyline"
       inkscape:connector-curvature="0" /><path
       style="fill:none;fill-rule:evenodd;stroke:#000000;stroke-width:0.264583px;stroke-linecap:butt;stroke-linejoin:miter;stroke-opacity:1"
       d="m 111.44071,226.56106 v 0"
       id="path1830"
       inkscape:connector-type="polyline"
       inkscape:connector-curvature="0" /><path
       style="fill:#dc3545;fill-rule:evenodd;stroke:#000000;stroke-width:1.068;stroke-linecap:butt;stroke-linejoin:miter;stroke-opacity:1;stroke-dasharray:none"
       d="M 146.13451,125.10796 90.414159,135.62124"
       id="path1832"
       inkscape:connector-type="polyline"
       inkscape:connector-curvature="0" /><path
       style="fill:none;fill-rule:evenodd;stroke:#000000;stroke-width:0.264583px;stroke-linecap:butt;stroke-linejoin:miter;stroke-opacity:1"
       d="m 88.837168,189.7646 v 0"
       id="path1834"
       inkscape:connector-type="polyline"
       inkscape:connector-curvature="0" /><path
       style="fill:#000000;fill-rule:evenodd;stroke:#000000;stroke-width:1.068;stroke-linecap:butt;stroke-linejoin:miter;stroke-opacity:1;stroke-dasharray:none;fill-opacity:0.14901961"
       d="m 69.913274,133.51858 -18.39823,5.25664"
       id="path1836"
       inkscape:connector-type="polyline"
       inkscape:connector-curvature="0" /><path
       style="fill:none;fill-rule:evenodd;stroke:#000000;stroke-width:0.264583px;stroke-linecap:butt;stroke-linejoin:miter;stroke-opacity:1"
       d="m 118.8,177.14867 v 0"
       id="path1838"
       inkscape:connector-type="polyline"
       inkscape:connector-curvature="0" /><path
       style="fill:#000000;fill-rule:evenodd;stroke:#000000;stroke-width:1.068;stroke-linecap:butt;stroke-linejoin:miter;stroke-opacity:1;stroke-dasharray:none;fill-opacity:0.14901961"
       d="m 67.284954,126.68495 -18.923892,1.57699"
       id="path1840"
       inkscape:connector-type="polyline"
       inkscape:connector-curvature="0" /><path
       style="fill:none;fill-rule:evenodd;stroke:#000000;stroke-width:0.264583px;stroke-linecap:butt;stroke-linejoin:miter;stroke-opacity:1"
       d="m 60.976991,217.62478 v 0"
       id="path1842"
       inkscape:connector-type="polyline"
       inkscape:connector-curvature="0" /><path
       style="fill:#dc3545;fill-rule:evenodd;stroke:#000000;stroke-width:1.068;stroke-linecap:butt;stroke-linejoin:miter;stroke-opacity:1;stroke-dasharray:none"
       d="m 66.75929,126.68495 4.205311,6.83363"
       id="path1844"
       inkscape:connector-type="polyline"
       inkscape:connector-curvature="0" /><path
       style="display:inline;fill:#000000;fill-rule:evenodd;stroke:#000000;stroke-width:1.068;stroke-linecap:butt;stroke-linejoin:miter;stroke-opacity:1;stroke-dasharray:none;fill-opacity:0.14901961"
       d="m 49.938053,127.21062 3.153981,11.5646"
       id="path1846"
       inkscape:connector-type="polyline"
       inkscape:connector-curvature="0" /><path
       style="fill:#000000;fill-rule:evenodd;stroke:#000000;stroke-width:0.26965553;stroke-linecap:butt;stroke-linejoin:miter;stroke-opacity:1;stroke-dasharray:none;fill-opacity:0.14901961"
       d="M 58.874336,125.10796 H 43.630087"
       id="path1848"
       inkscape:connector-type="polyline"
       inkscape:connector-curvature="0" /><path
       style="fill:#000000;fill-rule:evenodd;stroke:#000000;stroke-width:1.068;stroke-linecap:butt;stroke-linejoin:miter;stroke-opacity:1;stroke-dasharray:none;fill-opacity:0.14901961"
       d="m 43.630087,125.63363 3.153982,4.73097"
       id="path1850"
       inkscape:connector-type="polyline"
       inkscape:connector-curvature="0" /><path
       style="fill:#000000;fill-rule:evenodd;stroke:#000000;stroke-width:1.068;stroke-linecap:butt;stroke-linejoin:miter;stroke-opacity:1;stroke-dasharray:none;fill-opacity:0.14901961"
       d="m 38.373452,128.78761 3.153981,5.25664"
       id="path1852"
       inkscape:connector-type="polyline"
       inkscape:connector-curvature="0" /><path
       style="fill:#000000;fill-rule:evenodd;stroke:#000000;stroke-width:1.068;stroke-linecap:butt;stroke-linejoin:miter;stroke-opacity:1;stroke-dasharray:none;fill-opacity:0.14901961"
       d="m 42.57876,125.63363 -4.205308,3.67964"
       id="path1854"
       inkscape:connector-type="polyline"
       inkscape:connector-curvature="0" /><path
       style="fill:#000000;fill-rule:evenodd;stroke:#000000;stroke-width:1.068;stroke-linecap:butt;stroke-linejoin:miter;stroke-opacity:1;stroke-dasharray:none;fill-opacity:0.14901961"
       d="m 41.00177,132.99292 4.730972,4.73097"
       id="path1856"
       inkscape:connector-type="polyline"
       inkscape:connector-curvature="0" /><path
       style="display:inline;fill:#000000;fill-rule:evenodd;stroke:#000000;stroke-width:1.068;stroke-linecap:butt;stroke-linejoin:miter;stroke-dasharray:none;stroke-opacity:1;fill-opacity:0.14901961"
       d="m 46.258405,137.72389 4.730975,-1.05133"
       id="path1860"
       inkscape:connector-type="polyline"
       inkscape:connector-curvature="0" /><path
       style="fill:none;fill-rule:evenodd;stroke:#000000;stroke-width:0.264583px;stroke-linecap:butt;stroke-linejoin:miter;stroke-opacity:1"
       d="m 38.373452,200.80354 2.102654,-4.20531"
       id="path1864"
       inkscape:connector-type="polyline"
       inkscape:connector-curvature="0" /><path
       style="fill:#000000;fill-rule:evenodd;stroke:#000000;stroke-width:1.068;stroke-linecap:butt;stroke-linejoin:miter;stroke-opacity:1;stroke-dasharray:none;fill-opacity:0.14901961"
       d="m 44.155751,131.41593 h 6.307966"
       id="path1866"
       inkscape:connector-type="polyline"
       inkscape:connector-curvature="0" /><path
       style="fill:#000000;fill-rule:evenodd;stroke:#000000;stroke-width:1.07;stroke-linecap:butt;stroke-linejoin:miter;stroke-opacity:1;stroke-dasharray:none;fill-opacity:0.14901961"
       d="M 43.630087,125.10796 H 60.976991"
       id="path1868"
       inkscape:connector-type="polyline"
       inkscape:connector-curvature="0" /><path
       style="fill:#dc3545;fill-rule:evenodd;stroke:#000000;stroke-width:1.068;stroke-linecap:butt;stroke-linejoin:miter;stroke-opacity:1;stroke-dasharray:none"
       d="M 60.451327,123.00531 C 100.3056,122.7168 137.81882,115.40511 173.46903,102.50442"
       id="path1872"
       inkscape:connector-type="polyline"
       inkscape:connector-curvature="0"
       sodipodi:nodetypes="cc" /><path
       style="fill:#dc3545;fill-rule:evenodd;stroke:#000000;stroke-width:1.068;stroke-linecap:butt;stroke-linejoin:miter;stroke-opacity:1;stroke-dasharray:none"
       d="m 171.89203,103.03009 2.62832,10.51327"
       id="path1874"
       inkscape:connector-type="polyline"
       inkscape:connector-curvature="0" /><path
       style="fill:none;fill-rule:evenodd;stroke:#000000;stroke-width:0.264583px;stroke-linecap:butt;stroke-linejoin:miter;stroke-opacity:1"
       d="m 119.32566,251.26725 v 0"
       id="path1876"
       inkscape:connector-type="polyline"
       inkscape:connector-curvature="0" /><path
       style="display:inline;fill:#dc3545;fill-rule:evenodd;stroke:#000000;stroke-width:1.07;stroke-linecap:butt;stroke-linejoin:miter;stroke-dasharray:none;stroke-opacity:1"
       d="M 101.47948,121.9542 90.913435,42.578541"
       id="path1878"
       inkscape:connector-type="polyline"
       inkscape:connector-curvature="0" /><path
       style="fill:none;fill-rule:evenodd;stroke:#000000;stroke-width:0.264583px;stroke-linecap:butt;stroke-linejoin:miter;stroke-opacity:1"
       d="m 85.157521,237.6 v 0.52566"
       id="path1880"
       inkscape:connector-type="polyline"
       inkscape:connector-curvature="0" /><path
       style="fill:#dc3545;fill-rule:evenodd;stroke:#000000;stroke-width:1.07657396;stroke-linecap:butt;stroke-linejoin:miter;stroke-opacity:1;stroke-dasharray:none"
       d="m 95.670795,52.040707 8.936285,46.784069"
       id="path1882"
       inkscape:connector-type="polyline"
       inkscape:connector-curvature="0" /><path
       style="fill:none;fill-rule:evenodd;stroke:#000000;stroke-width:0.264583px;stroke-linecap:butt;stroke-linejoin:miter;stroke-opacity:1"
       d="m 114.06903,195.02124 v 0"
       id="path1884"
       inkscape:connector-type="polyline"
       inkscape:connector-curvature="0" /><path
       style="fill:#dc3545;fill-rule:evenodd;stroke:#000000;stroke-width:1.07;stroke-linecap:butt;stroke-linejoin:miter;stroke-dasharray:none;stroke-opacity:1"
       d="m 97.094217,64.372417 6.089433,55.237453"
       id="path1886"
       inkscape:connector-type="polyline"
       inkscape:connector-curvature="0" /><path
       style="fill:none;fill-rule:evenodd;stroke:#000000;stroke-width:0.264583px;stroke-linecap:butt;stroke-linejoin:miter;stroke-opacity:1"
       d="m 111.44071,176.62301 v 0"
       id="path1888"
       inkscape:connector-type="polyline"
       inkscape:connector-curvature="0" /><path
       style="fill:#dc3545;fill-rule:evenodd;stroke:#000000;stroke-width:1.07657396;stroke-linecap:butt;stroke-linejoin:miter;stroke-opacity:1;stroke-dasharray:none"
       d="m 89.362832,44.155751 c 10.673778,18.934677 18.816558,39.14699 15.769908,56.771679"
       id="path1890"
       inkscape:connector-type="polyline"
       inkscape:connector-curvature="0"
       sodipodi:nodetypes="cc" /><path
       style="fill:#dc3545;fill-rule:evenodd;stroke:#000000;stroke-width:1.07658;stroke-linecap:butt;stroke-linejoin:miter;stroke-dasharray:none;stroke-opacity:1"
       d="m 93.194983,52.566371 0.746307,1.576991"
       id="path1892"
       inkscape:connector-type="polyline"
       inkscape:connector-curvature="0" /><path
       style="fill:none;fill-rule:evenodd;stroke:#000000;stroke-width:0.264583px;stroke-linecap:butt;stroke-linejoin:miter;stroke-opacity:1"
       d="m 78.849558,217.62478 v 0"
       id="path1894"
       inkscape:connector-type="polyline"
       inkscape:connector-curvature="0" /><path
       style="fill:#dc3545;fill-rule:evenodd;stroke:#000000;stroke-width:1.068;stroke-linecap:butt;stroke-linejoin:miter;stroke-opacity:1;stroke-dasharray:none"
       d="M 89.362832,43.104424 C 153.43656,37.81432 156.28838,71.439442 165.58407,86.734511"
       id="path1896"
       inkscape:connector-type="polyline"
       inkscape:connector-curvature="0"
       sodipodi:nodetypes="cc" /><path
       style="fill:#dc3545;fill-rule:evenodd;stroke:#000000;stroke-width:1.068;stroke-linecap:butt;stroke-linejoin:miter;stroke-opacity:1;stroke-dasharray:none"
       d="m 166.6354,87.260175 c -19.88069,6.686092 -40.22395,11.521902 -61.50266,12.615931"
       id="path1898"
       inkscape:connector-type="polyline"
       inkscape:connector-curvature="0"
       sodipodi:nodetypes="cc" /><path
       style="fill:#dc3545;fill-rule:evenodd;stroke:#000000;stroke-width:1.07;stroke-linecap:butt;stroke-linejoin:miter;stroke-opacity:1;stroke-dasharray:none"
       d="M 99.876106,109.33805 59.925664,123.00531"
       id="path1900"
       inkscape:connector-type="polyline"
       inkscape:connector-curvature="0"
       sodipodi:nodetypes="cc" /><path
       style="fill:none;fill-rule:evenodd;stroke:#000000;stroke-width:0.264583px;stroke-linecap:butt;stroke-linejoin:miter;stroke-opacity:1"
       d="m 53.092034,196.07256 v 0"
       id="path1902"
       inkscape:connector-type="polyline"
       inkscape:connector-curvature="0" /><path
       style="fill:#dc3545;fill-rule:evenodd;stroke:#000000;stroke-width:1.068;stroke-linecap:butt;stroke-linejoin:miter;stroke-opacity:1;stroke-dasharray:none"
       d="m 104.60708,108.28672 c 29.95003,-14.221046 47.56161,-7.29045 68.33628,-5.7823"
       id="path1904"
       inkscape:connector-type="polyline"
       inkscape:connector-curvature="0"
       sodipodi:nodetypes="cc" /><circle
       style="fill:#0d6efd;stroke:#131038;stroke-width:1.07677419;paint-order:fill markers stroke;stop-color:#000000;stroke-dasharray:none"
       id="path1906"
       cx="79.638054"
       cy="137.46106"
       r="2.8911505" /><ellipse
       style="fill:#0d6efd;stroke:#131038;stroke-width:1.07677419;paint-order:fill markers stroke;stop-color:#000000;stroke-dasharray:none"
       id="path1908"
       cx="157.43628"
       cy="123.0053"
       rx="3.4168141"
       ry="3.679646"
       inkscape:transform-center-x="-0.52566372"
       inkscape:transform-center-y="-2.1026549" /><path
       style="display:inline;fill:none;fill-rule:evenodd;stroke:#000000;stroke-width:0.264583px;stroke-linecap:butt;stroke-linejoin:miter;stroke-opacity:1"
       d="m 77.798228,189.23894 v 0"
       id="path2392"
       inkscape:connector-type="polyline"
       inkscape:connector-curvature="0" /><path
       style="fill:#000000;fill-opacity:0.14902;fill-rule:evenodd;stroke:#000000;stroke-width:0.264583px;stroke-linecap:butt;stroke-linejoin:miter;stroke-opacity:1"
       d="m 36.796461,123.53097 v 0"
       id="path2400"
       inkscape:connector-type="polyline"
       inkscape:connector-curvature="0" /><g
       aria-label="FAST"
       transform="scale(1.0586518,0.94459767)"
       id="text2803"
       style="font-size:37.8361px;font-family:'Berlin Sans FB Demi';-inkscape-font-specification:'Berlin Sans FB Demi';fill-opacity:0.70984459;stroke:#131038;stroke-width:1.068;paint-order:fill markers stroke;stop-color:#000000;fill:#0064f8"><path
         d="m 106.13157,158.39787 q 0,0.20322 -0.36949,0.20322 -1.3856,0 -4.21222,-0.24017 -2.808152,-0.24017 -4.212226,-0.24017 -1.773568,0 -2.069162,0.12932 -0.683563,0.31407 -0.683563,1.77357 0,1.75509 0.886784,1.99526 0.369493,0.0924 1.126954,0.0924 1.274752,0 3.805783,-0.12932 2.5495,-0.1478 3.82425,-0.1478 0.60967,0 0.60967,3.25154 0,2.82663 -0.20323,3.28849 -0.12932,0.33255 -0.49881,0.33255 0.24017,0 -1.16391,-0.12933 -1.97678,-0.18474 -5.985785,-0.18474 -1.293226,0 -1.459498,0.0185 -0.942208,0.1478 -0.942208,0.79441 0,2.6234 0.221696,6.04122 0.184747,3.08526 0.184747,2.75272 0,0.48034 -1.163904,0.55424 0.31407,-0.0185 -1.644244,-0.0185 -3.454761,0 -4.452393,-0.24018 -0.535765,-0.12932 -0.535765,-0.57271 0,-2.05069 0.129322,-6.15206 0.147798,-4.11985 0.147798,-6.17054 0,-2.43865 -0.221696,-6.13358 -0.332544,-5.70867 -0.351019,-6.13359 l -0.01847,-0.2217 q -0.01847,-0.46186 0.554239,-0.46186 1.367125,0 4.119849,0.0554 2.771199,0.0554 4.156799,0.0554 1.477972,0 4.433916,-0.22169 2.97442,-0.2217 4.45239,-0.2217 0.92374,0 1.03459,0.75746 0,0.79441 0.0739,2.38323 0.037,0.40645 0.24017,1.57035 0.18475,1.01611 0.18475,1.57035 z"
         id="path2805"
         style="fill:#0064f8;fill-opacity:0.70984459" /><path
         d="m 132.67966,177.83321 q 0,0.33254 -0.46187,0.46186 -0.55424,0.1478 -3.43629,0.1478 -2.64187,0 -3.39933,-0.1478 -0.62814,-0.12932 -0.79442,-0.83136 -0.62813,-2.66035 -0.97915,-2.84509 -0.2956,-0.12933 -4.95121,-0.12933 -3.14069,0 -3.34391,0.16628 -0.31407,0.29559 -0.70204,1.97679 -0.35102,1.53339 -0.84984,1.66271 -0.62813,0.1478 -4.21222,0.1478 -2.82662,0 -2.82662,-0.53576 0,-0.48034 4.17527,-11.80531 4.52629,-12.2487 4.91426,-13.46803 0.2217,-0.70203 0.51729,-0.70203 0.49882,0 1.5334,0.0924 1.05305,0.0924 1.57035,0.0924 0.49881,0 1.45949,-0.0554 0.97916,-0.0739 1.4595,-0.0739 0.35102,0 0.64661,0.60966 0.90526,1.93984 5.28376,13.30176 4.39697,11.43581 4.39697,11.93463 z m -13.09854,-16.83042 q -0.38797,0.81289 -1.3117,3.52866 -0.99763,2.88205 -0.99763,3.38087 0,0.33254 1.10848,0.36949 0.57271,0.0369 1.88441,0.0369 1.21933,0 1.34865,-0.2956 0.0369,-0.0924 0.0369,-0.25864 0,-0.60966 -0.84983,-3.36239 -0.83136,-2.66035 -1.21933,-3.39934 z"
         id="path2807"
         style="fill:#0064f8;fill-opacity:0.70984459" /><path
         d="m 147.16379,169.79673 q 0,3.75036 -3.15917,6.42918 -2.7712,2.36476 -6.74325,3.01137 -0.1478,0.0185 -0.24017,0.0185 -0.42492,0 -1.88441,-2.58646 -1.4595,-2.60492 -1.4595,-3.17764 0,-0.20322 0.27712,-0.25864 2.67882,-0.60967 3.54713,-1.03458 1.92137,-0.96069 1.92137,-2.8451 0,-1.20085 -1.25628,-2.67883 -2.18001,-2.51255 -2.36476,-2.78967 -1.27475,-1.92136 -1.27475,-4.24917 0,-3.38086 3.12222,-5.6163 2.5495,-1.84746 6.26291,-2.4017 0.20322,-0.0185 0.31407,-0.0185 0.27712,0 0.44339,0.44339 0.48034,1.34865 2.23543,4.87731 0.0554,0.11085 0.0554,0.18475 0,0.31407 -0.33255,0.31407 -0.14779,0 -0.49881,-0.0554 -0.35102,-0.0554 -0.53577,-0.0554 -1.33017,0 -2.3278,0.60967 -1.20086,0.70203 -1.20086,1.95831 0,1.12695 1.33018,2.7712 2.34628,2.95594 2.45713,3.10374 1.3117,2.03221 1.3117,4.04595 z"
         id="path2809"
         style="fill:#0064f8;fill-opacity:0.70984459" /><path
         d="m 168.2249,158.02837 q 0,0.3695 -0.40644,0.3695 -0.70204,0 -5.56087,-0.27712 -0.11085,4.67409 -0.11085,6.52155 0,2.18001 0.16627,6.55851 0.18475,4.37849 0.18475,6.5585 0,0.35102 -0.16628,0.44339 -0.0554,0.037 -0.51729,0.0924 -1.10848,0.1478 -3.25154,0.1478 -2.38323,0 -3.34391,-0.1478 -0.51729,-0.0924 -0.51729,-0.57271 0,-2.18001 0.18475,-6.54003 0.18474,-4.36002 0.18474,-6.54003 0,-1.44102 -0.14779,-6.42918 -3.69494,0.36949 -5.89342,0.36949 -0.29559,0 -0.29559,-0.18474 0,-0.24017 0.25864,-1.42255 0.2956,-1.29323 0.33254,-1.57035 0.0554,-0.86831 0.12933,-1.73662 0.12932,-1.3856 0.44339,-1.3856 0.0369,0 0.25864,0.0185 2.9929,0.38797 8.84937,0.38797 1.66272,0 6.13358,-0.35102 2.40171,-0.18475 2.42018,-0.18475 0.3695,0 0.42492,0.0554 0.0554,0.037 0.0739,0.35101 0,0.49882 -0.0369,1.3856 -0.0369,0.97916 -0.0369,1.3856 0,0.46187 0.11085,1.36713 0.12932,0.88678 0.12932,1.33017 z"
         id="path2811"
         style="fill:#0064f8;fill-opacity:0.70984459" /></g></g></svg>
