<?xml version="1.0" encoding="UTF-8" standalone="no"?>
<!-- Created with Inkscape (http://www.inkscape.org/) -->

<svg
   width="299mm"
   height="212mm"
   viewBox="0 0 299 212"
   version="1.1"
   id="svg5"
   inkscape:version="1.2.2 (732a01da63, 2022-12-09)"
   sodipodi:docname="drawing.svg"
   xmlns:inkscape="http://www.inkscape.org/namespaces/inkscape"
   xmlns:sodipodi="http://sodipodi.sourceforge.net/DTD/sodipodi-0.dtd"
   xmlns="http://www.w3.org/2000/svg"
   xmlns:svg="http://www.w3.org/2000/svg">
  <sodipodi:namedview
     id="namedview7"
     pagecolor="#f6ffff"
     bordercolor="#000000"
     borderopacity="0.27843137"
     inkscape:showpageshadow="2"
     inkscape:pageopacity="0.04313725"
     inkscape:pagecheckerboard="0"
     inkscape:deskcolor="#d1d1d1"
     inkscape:document-units="px"
     showgrid="false"
     showborder="true"
     inkscape:zoom="0.93303299"
     inkscape:cx="321.53204"
     inkscape:cy="487.65693"
     inkscape:window-width="1360"
     inkscape:window-height="745"
     inkscape:window-x="-8"
     inkscape:window-y="-8"
     inkscape:window-maximized="1"
     inkscape:current-layer="layer1" />
  <defs
     id="defs2">
    <rect
       x="280.80465"
       y="321.53204"
       width="12.861282"
       height="167.19666"
       id="rect1592" />
    <linearGradient
       id="linearGradient793"
       inkscape:swatch="solid">
      <stop
         style="stop-color:#080000;stop-opacity:0.02745098;"
         offset="0"
         id="stop791" />
    </linearGradient>
  </defs>
  <g
     inkscape:label="Layer 1"
     inkscape:groupmode="layer"
     id="layer1">
    <text
       xml:space="preserve"
       transform="scale(0.26458334)"
       id="text1590"
       style="fill:#090000;font-size:32px;stroke-width:13.60251969;paint-order:fill markers stroke;stroke:#000000;opacity:0.48;white-space:pre;shape-inside:url(#rect1592)" />
    <text
       xml:space="preserve"
       style="font-size:8.46667px;white-space:pre;inline-size:46.6715;opacity:0.48;fill:#e374ab;stroke:#000000;stroke-width:0.709323;paint-order:fill markers stroke"
       x="88.474899"
       y="108.89219"
       id="text1598"
       transform="matrix(3.879997,0,0,6.6350129,-255.27096,-578.99133)"><tspan
         x="88.474899"
         y="108.89219"
         id="tspan2265"><tspan
           style="stroke-width:0.709325"
           id="tspan2263"> </tspan></tspan></text>
    <g
       aria-label="TEXT"
       transform="scale(0.79752778,1.2538748)"
       id="text2047"
       style="font-size:64.5058px;font-family:Jokerman;-inkscape-font-specification:'Jokerman, Normal';opacity:0.48;vector-effect:none;fill:url(#linearGradient795);stroke:#000000;stroke-width:3.599;paint-order:fill markers stroke;stop-color:#000000;stop-opacity:1">
      <path
         d="m 123.02122,88.615103 -0.69293,5.008018 q -2.0788,-0.377963 -4.1261,-0.566945 -2.04731,-0.188982 -4.00012,-0.188982 -2.48826,0 -5.03951,0.31497 -2.51976,0.314969 -5.10251,0.913412 l 2.99221,46.615514 -14.236632,-1.85832 3.527661,-44.37923 -2.141794,0.0315 q -3.43317,0.06299 -6.047419,-0.31497 -2.582752,-0.377964 -4.283588,-1.228382 -2.362273,-1.196885 -3.527661,-3.307182 -1.133891,-2.110297 -1.133891,-5.228497 v -0.787425 l 2.110297,-0.72443 q 0.125988,3.527661 2.645746,5.291491 2.551254,1.732334 7.433285,1.732334 4.126103,0 12.252326,-1.228382 8.15771,-1.228382 12.28382,-1.228382 2.17329,0 3.96861,0.31497 1.79533,0.283472 3.1182,0.818921 z m -20.788,19.780097 q 0,-1.13389 -0.56694,-1.70084 -0.53545,-0.56694 -1.669343,-0.56694 -1.133891,0 -1.732333,0.56694 -0.566946,0.56695 -0.566946,1.70084 0,1.16539 0.566946,1.73233 0.598442,0.53545 1.732333,0.53545 1.133893,0 1.669343,-0.53545 0.56694,-0.56694 0.56694,-1.73233 z m 0.53545,9.3861 q 0,-1.16539 -0.85042,-2.01581 -0.81892,-0.88191 -2.015804,-0.88191 -1.196885,0 -2.047303,0.88191 -0.850418,0.85042 -0.850418,2.01581 0,1.22838 0.850418,2.0788 0.850418,0.85042 2.047303,0.85042 1.196884,0 2.015804,-0.85042 0.85042,-0.85042 0.85042,-2.0788 z m -0.69293,9.89005 q 0,-1.1024 -0.56695,-1.66934 -0.53545,-0.56695 -1.669338,-0.56695 -1.133891,0 -1.732333,0.56695 -0.566945,0.56694 -0.566945,1.66934 0,1.13389 0.566945,1.70083 0.598442,0.53545 1.732333,0.53545 1.133888,0 1.669338,-0.53545 0.56695,-0.56694 0.56695,-1.70083 z"
         id="path2099"
         style="fill:#e374ab" />
      <path
         d="m 148.34479,109.77256 -0.94491,8.60919 -7.33879,-1.85178 2.45676,-5.29547 z m 10.86646,2.14418 -5.03952,1.49442 q -0.25198,-3.44367 -1.44886,-5.68531 -1.16539,-2.27413 -3.30718,-3.37871 -1.16539,-0.58477 -3.77964,-1.07208 -2.58275,-0.5198 -6.58287,-0.84468 l -2.42526,21.44177 16.09495,-0.87717 -4.03161,9.32392 -12.85077,-2.82641 -2.83473,21.73415 11.81137,0.16244 4.1261,-6.23761 6.58287,-0.38985 0.15748,10.36352 -30.36308,-1.75433 1.76383,-33.91697 4.2206,0.22742 0.69293,-2.79393 -4.85053,-0.065 0.25197,-3.93099 4.59856,0.35736 0.47246,-3.47617 h -4.91353 l 0.15748,-3.83352 4.59856,0.35736 0.62994,-2.98885 -5.07101,-0.2599 0.31497,-5.912732 q 3.1182,0.2599 6.2679,0.519801 3.14969,0.227412 6.29939,0.422337 3.74814,0.454826 6.67736,1.331988 2.92922,0.844676 5.00802,2.144176 2.74023,1.68935 4.40957,4.28835 1.70084,2.59901 2.36228,6.07517 z"
         id="path2101"
         style="fill:#e374ab;stroke-width:3.599" />
      <path
         d="m 208.37802,112.42681 c 0,1.0709 -0.38846,1.99481 -1.16539,2.77174 -0.75593,0.75593 -1.66934,1.13389 -2.74024,1.13389 -1.11289,0 -2.0578,-0.37796 -2.83473,-1.13389 -0.75593,-0.77693 -1.13389,-1.70084 -1.13389,-2.77174 0,-1.0499 0.38846,-1.95281 1.16539,-2.70874 0.79793,-0.77692 1.73234,-1.16538 2.80323,-1.16538 1.0499,0 1.96331,0.38846 2.74024,1.16538 0.77693,0.75593 1.16539,1.65884 1.16539,2.70874 z m 2.0158,26.89842 -4.09461,4.37808 -19.46512,-22.86681 c -1.63785,3.21269 -3.02371,5.81644 -4.1576,7.81125 -1.13389,1.97381 -1.99481,3.38068 -2.58276,4.2206 -1.72183,2.45676 -3.47516,4.29408 -5.25999,5.51197 -1.78483,1.21788 -3.59065,1.82682 -5.41748,1.82682 -1.88982,0 -3.76914,-0.66144 -5.63796,-1.98431 -1.84782,-1.34387 -3.67464,-3.34917 -5.48047,-6.01592 l 1.63784,-1.70084 c 1.0709,1.51186 2.1628,2.65625 3.27569,3.43317 1.13389,0.75593 2.28877,1.1339 3.46466,1.1339 1.49086,0 3.04471,-0.61944 4.66156,-1.85833 1.61684,-1.25987 3.30718,-3.13919 5.07101,-5.63795 0.52495,-0.73493 1.33337,-2.03681 2.42527,-3.90563 1.09189,-1.88982 2.47776,-4.33608 4.1576,-7.33879 l -6.36239,-7.52778 2.77173,-2.36227 -2.14179,-2.55126 -2.77174,2.39377 -2.51975,-2.86622 3.0552,-2.42527 -2.0788,-2.488258 -2.89772,2.551258 -2.0788,-2.393773 3.21269,-2.488261 -1.60634,-2.488261 -3.52767,2.834728 -2.20478,-2.582752 11.18142,-7.90574 13.26023,19.622609 11.01064,-24.821659 4.67485,7.939287 -12.22083,22.488842 z m -37.95385,-21.8589 c 0,1.07089 -0.38846,1.9948 -1.16539,2.77173 -0.77693,0.77693 -1.70084,1.16539 -2.77173,1.16539 -1.0709,0 -1.99481,-0.38846 -2.77173,-1.16539 -0.75593,-0.77693 -1.1339,-1.70084 -1.1339,-2.77173 0,-1.0499 0.38846,-1.96331 1.16539,-2.74024 0.79793,-0.77693 1.71134,-1.16539 2.74024,-1.16539 1.0499,0 1.96331,0.38846 2.74024,1.16539 0.79792,0.77693 1.19688,1.69034 1.19688,2.74024 z"
         id="path2103"
         style="fill:#e374ab"
         sodipodi:nodetypes="ssscscscscccccssccccscccccccccccccccccccccccssscscscs" />
      <path
         d="m 259.07555,100.9775 -0.69294,5.81272 c -1.38587,-0.29247 -5.96132,-6.61807 -7.32619,-6.7643 -1.36487,-0.146234 -2.69824,-0.219351 -4.00012,-0.219351 -1.65884,0 -3.33868,0.12186 -5.03951,0.365581 -1.67984,0.24372 -3.38068,0.59711 -5.10251,1.06018 l 2.99221,54.10577 -14.23663,-2.15692 3.52766,-51.51015 -2.14179,0.0365 c -2.28878,0.0487 -4.30459,-0.0731 -6.04742,-0.36559 -1.72183,-0.29246 -3.1497,-0.76771 -4.28359,-1.425756 -1.57485,-0.926134 -2.75073,-2.205662 -3.52766,-3.838584 -0.75593,-1.632923 -1.13389,-3.655796 -1.13389,-6.068621 V 89.09508 l 0.33247,4.360793 c 0.084,2.729662 2.74373,-0.424719 4.42357,0.94011 1.70084,1.340459 4.1786,2.010688 7.43329,2.010688 2.75073,0 6.83484,-0.475253 12.25232,-1.425759 5.43847,-0.950507 9.53308,-1.425761 12.28382,-1.425761 1.44886,0 2.77173,0.12186 3.96862,0.36558 1.19688,0.219347 2.23628,0.536182 3.1182,0.950507 z m -23.98809,16.85214 c 0,-0.87739 -0.18898,-1.53544 -0.56695,-1.97413 -0.35697,-0.43869 -0.91341,-0.65804 -1.66934,-0.65804 -0.75593,0 -1.33337,0.21935 -1.73233,0.65804 -0.37797,0.43869 -0.56695,1.09674 -0.56695,1.97413 0,0.90176 0.18898,1.57199 0.56695,2.01069 0.39896,0.41432 0.9764,0.62148 1.73233,0.62148 0.75593,0 1.31237,-0.20716 1.66934,-0.62148 0.37797,-0.4387 0.56695,-1.10893 0.56695,-2.01069 z m 0.53544,10.89427 c 0,-0.90176 -0.28347,-1.68166 -0.85041,-2.33971 -0.54595,-0.68241 -1.21789,-1.02362 -2.01581,-1.02362 -0.79793,0 -1.48036,0.34121 -2.0473,1.02362 -0.56695,0.65805 -0.85042,1.43795 -0.85042,2.33971 0,0.95051 0.28347,1.75478 0.85042,2.41283 0.56694,0.65804 1.24937,0.98706 2.0473,0.98706 0.79792,0 1.46986,-0.32902 2.01581,-0.98706 0.56694,-0.65805 0.85041,-1.46232 0.85041,-2.41283 z m -0.69293,11.4792 c 0,-0.85302 -0.18898,-1.49888 -0.56695,-1.93757 -0.35696,-0.4387 -0.9134,-0.65805 -1.66933,-0.65805 -0.75593,0 -1.33338,0.21935 -1.73234,0.65805 -0.37796,0.43869 -0.56694,1.08455 -0.56694,1.93757 0,0.87739 0.18898,1.53544 0.56694,1.97413 0.39896,0.41432 0.97641,0.62148 1.73234,0.62148 0.75593,0 1.31237,-0.20716 1.66933,-0.62148 0.37797,-0.43869 0.56695,-1.09674 0.56695,-1.97413 z"
         id="path2105"
         style="fill:#e374ab;stroke-width:3.599"
         sodipodi:nodetypes="ccsscccccccccscccscscscscscscsssscscssscsscscscsss" />
      <path
         sodipodi:type="star"
         style="opacity:0.48;vector-effect:none;fill:#ea95bf;fill-opacity:1;stroke:#000000;stroke-width:1.07702;stroke-linecap:butt;stroke-linejoin:miter;stroke-miterlimit:4;stroke-dasharray:none;stroke-dashoffset:0;stroke-opacity:1;-inkscape-stroke:none;paint-order:fill markers stroke;stop-color:#000000;stop-opacity:1"
         id="path2187"
         inkscape:flatsided="false"
         sodipodi:sides="5"
         sodipodi:cx="755.60028"
         sodipodi:cy="270.08691"
         sodipodi:r1="9.7774162"
         sodipodi:r2="5.722549"
         sodipodi:arg1="0.66001753"
         sodipodi:arg2="1.6355476"
         inkscape:rounded="0"
         inkscape:randomized="0"
         d="m 763.32426,276.08175 -8.09426,-0.28428 -2.9443,3.48789 -2.23091,-7.78595 -4.22701,-1.72238 6.71549,-4.5277 0.33186,-4.55238 6.3813,4.98767 4.43212,-1.09114 -2.77163,7.61025 z"
         transform="matrix(1.2979903,0,0,0.60223973,-754.51542,-78.030732)"
         inkscape:transform-center-x="3.3284697"
         inkscape:transform-center-y="1.3369462" />
    </g>
    <path
       style="opacity:0.48;vector-effect:none;fill:#ea95bf;fill-opacity:1;stroke:#000000;stroke-width:3.59899;stroke-linecap:butt;stroke-linejoin:miter;stroke-miterlimit:4;stroke-dasharray:none;stroke-dashoffset:0;stroke-opacity:1;-inkscape-stroke:none;paint-order:fill markers stroke;stop-color:#000000;stop-opacity:1"
       id="path2243"
       sodipodi:type="arc"
       sodipodi:cx="111.58614"
       sodipodi:cy="105.6311"
       sodipodi:rx="8.4108896"
       sodipodi:ry="10.422457"
       sodipodi:start="0.52940226"
       sodipodi:end="3.8943184"
       sodipodi:arc-type="slice"
       d="m 118.84566,110.89463 a 8.4108896,10.422457 0 0 1 -7.93372,5.12539 8.4108896,10.422457 0 0 1 -7.1708,-6.63056 8.4108896,10.422457 0 0 1 1.7065,-10.883467 l 6.1385,7.125107 z" />
  </g>
</svg>
