<?xml version="1.0" encoding="UTF-8" standalone="no"?>
<!-- Created with Inkscape (http://www.inkscape.org/) -->

<svg
   width="210mm"
   height="297mm"
   viewBox="0 0 210 297"
   version="1.1"
   id="svg5"
   inkscape:version="1.2.2 (732a01da63, 2022-12-09)"
   sodipodi:docname="drawing-17.svg"
   xmlns:inkscape="http://www.inkscape.org/namespaces/inkscape"
   xmlns:sodipodi="http://sodipodi.sourceforge.net/DTD/sodipodi-0.dtd"
   xmlns="http://www.w3.org/2000/svg"
   xmlns:svg="http://www.w3.org/2000/svg">
  <sodipodi:namedview
     id="namedview7"
     pagecolor="#ffffff"
     bordercolor="#000000"
     borderopacity="0.25"
     inkscape:showpageshadow="2"
     inkscape:pageopacity="0.0"
     inkscape:pagecheckerboard="0"
     inkscape:deskcolor="#d1d1d1"
     inkscape:document-units="mm"
     showgrid="false"
     inkscape:zoom="0.50333193"
     inkscape:cx="398.34548"
     inkscape:cy="403.31238"
     inkscape:window-width="1360"
     inkscape:window-height="745"
     inkscape:window-x="-8"
     inkscape:window-y="-8"
     inkscape:window-maximized="1"
     inkscape:current-layer="layer1" />
  <defs
     id="defs2" />
  <g
     inkscape:label="Layer 1"
     inkscape:groupmode="layer"
     id="layer1">
    <path
       style="fill:#040404;fill-opacity:0;stroke:#35eddf;stroke-width:0.964999;stroke-dasharray:none;stroke-opacity:0.89119208;paint-order:fill markers stroke;stop-color:#000000"
       id="path1154"
       sodipodi:type="arc"
       sodipodi:cx="105.13274"
       sodipodi:cy="122.21682"
       sodipodi:rx="21.026546"
       sodipodi:ry="24.969028"
       sodipodi:start="0"
       sodipodi:end="4.739371"
       sodipodi:open="true"
       sodipodi:arc-type="arc"
       d="M 126.15928,122.21682 A 21.026546,24.969028 0 0 1 113.04803,145.34912 21.026546,24.969028 0 0 1 90.065497,139.6328 21.026546,24.969028 0 0 1 85.87354,112.19675 21.026546,24.969028 0 0 1 105.70001,97.25688" />
    <path
       style="fill:#040404;fill-opacity:0;stroke:#35eddf;stroke-width:0.964998;stroke-dasharray:none;stroke-opacity:0.89119208;paint-order:fill markers stroke;stop-color:#000000"
       id="path1156"
       sodipodi:type="arc"
       sodipodi:cx="105.92124"
       sodipodi:cy="121.42831"
       sodipodi:rx="16.558407"
       sodipodi:ry="19.449558"
       sodipodi:start="0"
       sodipodi:end="4.6868597"
       sodipodi:open="true"
       sodipodi:arc-type="arc"
       d="m 122.47965,121.42831 a 16.558407,19.449558 0 0 1 -16.4175,19.44885 16.558407,19.449558 0 0 1 -16.696917,-19.11785 16.558407,19.449558 0 0 1 16.133327,-19.77422" />
    <path
       style="fill:#040404;fill-opacity:0;stroke:#35eddf;stroke-width:0.964999;stroke-dasharray:none;stroke-opacity:0.89119208;paint-order:fill markers stroke;stop-color:#000000"
       id="path1158"
       sodipodi:type="arc"
       sodipodi:cx="104.86992"
       sodipodi:cy="123.26814"
       sodipodi:rx="26.546019"
       sodipodi:ry="30.751326"
       sodipodi:start="0"
       sodipodi:end="4.6776505"
       sodipodi:open="true"
       sodipodi:arc-type="arc"
       d="M 131.41594,123.26814 A 26.546019,30.751326 0 0 1 105.1773,154.01741 26.546019,30.751326 0 0 1 78.331019,123.98025 26.546019,30.751326 0 0 1 103.94794,92.53537" />
    <path
       style="fill:#040404;fill-opacity:0;stroke:#35eddf;stroke-width:0.964999;stroke-dasharray:none;stroke-opacity:0.891192;paint-order:fill markers stroke;stop-color:#000000"
       id="path1154-5"
       sodipodi:type="arc"
       sodipodi:cx="-112.70424"
       sodipodi:cy="-136.38133"
       sodipodi:rx="21.026546"
       sodipodi:ry="24.969028"
       sodipodi:start="0"
       sodipodi:end="4.739371"
       sodipodi:open="true"
       sodipodi:arc-type="arc"
       d="m -91.677692,-136.38133 a 21.026546,24.969028 0 0 1 -13.111258,23.1323 21.026546,24.969028 0 0 1 -22.98253,-5.71633 21.026546,24.969028 0 0 1 -4.19196,-27.43604 21.026546,24.969028 0 0 1 19.82647,-14.93987"
       transform="rotate(174.15616)" />
    <path
       style="fill:#040404;fill-opacity:0;stroke:#35eddf;stroke-width:0.964998;stroke-dasharray:none;stroke-opacity:0.891192;paint-order:fill markers stroke;stop-color:#000000"
       id="path1156-8"
       sodipodi:type="arc"
       sodipodi:cx="-111.91573"
       sodipodi:cy="-137.16985"
       sodipodi:rx="16.558407"
       sodipodi:ry="19.449558"
       sodipodi:start="0"
       sodipodi:end="4.6868597"
       sodipodi:open="true"
       sodipodi:arc-type="arc"
       d="m -95.357327,-137.16985 a 16.558407,19.449558 0 0 1 -16.417503,19.44886 16.558407,19.449558 0 0 1 -16.69691,-19.11785 16.558407,19.449558 0 0 1 16.13333,-19.77423"
       transform="rotate(174.15616)" />
    <path
       style="fill:#040404;fill-opacity:0;stroke:#35edd3;stroke-width:0.964999;stroke-dasharray:none;stroke-opacity:0.891192;paint-order:fill markers stroke;stop-color:#000000"
       id="path1158-3"
       sodipodi:type="arc"
       sodipodi:cx="-112.96706"
       sodipodi:cy="-135.33003"
       sodipodi:rx="26.546019"
       sodipodi:ry="30.751326"
       sodipodi:start="0"
       sodipodi:end="4.6776505"
       sodipodi:open="true"
       sodipodi:arc-type="arc"
       d="m -86.421038,-135.33003 a 26.546019,30.751326 0 0 1 -26.238632,30.74926 26.546019,30.751326 0 0 1 -26.84629,-30.03716 26.546019,30.751326 0 0 1 25.61692,-31.44488"
       transform="rotate(174.15616)" />
    <path
       style="fill:none;fill-rule:evenodd;stroke:#000000;stroke-width:0.264583px;stroke-linecap:butt;stroke-linejoin:miter;stroke-opacity:1"
       d="m 108.81239,185.03363 h -0.52567"
       id="path1326"
       inkscape:connector-type="polyline"
       inkscape:connector-curvature="0" />
    <text
       xml:space="preserve"
       style="font-size:64.5057px;font-family:Aldhabi;-inkscape-font-specification:Aldhabi;fill:#040404;fill-opacity:0;stroke:#4be2db;stroke-width:0.964999;stroke-dasharray:none;stroke-opacity:1;paint-order:fill markers stroke;stop-color:#000000"
       x="47.309734"
       y="185.55928"
       id="text1382"><tspan
         sodipodi:role="line"
         id="tspan1380"
         style="stroke-width:0.965"
         x="47.309734"
         y="185.55928">FARAH</tspan></text>
    <path
       style="fill:#040404;fill-opacity:0;stroke:#4be2db;stroke-width:0.964999;stroke-dasharray:none;stroke-opacity:1;paint-order:fill markers stroke;stop-color:#000000"
       id="path2218"
       sodipodi:type="arc"
       sodipodi:cx="-141.84302"
       sodipodi:cy="-188.97888"
       sodipodi:rx="5.5194688"
       sodipodi:ry="5.2566371"
       sodipodi:start="0"
       sodipodi:end="4.6868597"
       sodipodi:open="true"
       sodipodi:arc-type="arc"
       d="m -136.32355,-188.97888 a 5.5194688,5.2566371 0 0 1 -5.4725,5.25644 5.5194688,5.2566371 0 0 1 -5.56564,-5.16698 5.5194688,5.2566371 0 0 1 5.37778,-5.34439"
       transform="rotate(169.46841)" />
    <path
       style="fill:#040404;fill-opacity:0;stroke:#4be2db;stroke-width:0.964999;stroke-dasharray:none;stroke-opacity:1;paint-order:fill markers stroke;stop-color:#000000"
       id="path2220"
       sodipodi:type="arc"
       sodipodi:cx="-141.84302"
       sodipodi:cy="-189.50456"
       sodipodi:rx="2.3654866"
       sodipodi:ry="3.1539822"
       sodipodi:start="0"
       sodipodi:end="4.6868597"
       sodipodi:open="true"
       sodipodi:arc-type="arc"
       d="m -139.47753,-189.50456 a 2.3654866,3.1539822 0 0 1 -2.34536,3.15387 2.3654866,3.1539822 0 0 1 -2.38527,-3.1002 2.3654866,3.1539822 0 0 1 2.30476,-3.20663"
       transform="rotate(169.46841)"
       inkscape:transform-center-x="3.6796833"
       inkscape:transform-center-y="3.6853148" />
    <path
       style="fill:none;fill-rule:evenodd;stroke:#37bcae;stroke-width:0.665;stroke-linecap:butt;stroke-linejoin:miter;stroke-opacity:1;stroke-dasharray:none"
       d="M 48.361062,184.50796 C 271.17609,220.60529 179.86755,139.50565 162.43009,91.465486"
       id="path2258"
       inkscape:connector-type="polyline"
       inkscape:connector-curvature="0"
       sodipodi:nodetypes="cc" />
  </g>
</svg>
