<?xml version="1.0" encoding="UTF-8" standalone="no"?>
<!-- Created with Inkscape (http://www.inkscape.org/) -->

<svg
   width="210mm"
   height="297mm"
   viewBox="0 0 210 297"
   version="1.1"
   id="svg5"
   xml:space="preserve"
   inkscape:version="1.2.2 (732a01da63, 2022-12-09)"
   sodipodi:docname="drawing-27.svg"
   xmlns:inkscape="http://www.inkscape.org/namespaces/inkscape"
   xmlns:sodipodi="http://sodipodi.sourceforge.net/DTD/sodipodi-0.dtd"
   xmlns="http://www.w3.org/2000/svg"
   xmlns:svg="http://www.w3.org/2000/svg"><sodipodi:namedview
     id="namedview7"
     pagecolor="#ffffff"
     bordercolor="#000000"
     borderopacity="0.25"
     inkscape:showpageshadow="2"
     inkscape:pageopacity="0.0"
     inkscape:pagecheckerboard="0"
     inkscape:deskcolor="#d1d1d1"
     inkscape:document-units="mm"
     showgrid="false"
     inkscape:zoom="0.50333193"
     inkscape:cx="398.34548"
     inkscape:cy="562.25322"
     inkscape:window-width="1360"
     inkscape:window-height="745"
     inkscape:window-x="-8"
     inkscape:window-y="-8"
     inkscape:window-maximized="1"
     inkscape:current-layer="layer1" /><defs
     id="defs2" /><g
     inkscape:label="Layer 1"
     inkscape:groupmode="layer"
     id="layer1"><path
       style="fill:none;fill-rule:evenodd;stroke:#c840aa;stroke-width:1.265;stroke-linecap:butt;stroke-linejoin:miter;stroke-opacity:1;stroke-dasharray:none"
       d="m 131.41593,116.69734 c 4.79201,6.16818 10.98864,8.36088 19.97522,8.93629"
       id="path1627"
       inkscape:connector-type="polyline"
       inkscape:connector-curvature="0"
       sodipodi:nodetypes="cc" /><path
       style="fill:none;fill-rule:evenodd;stroke:#c840aa;stroke-width:1.265;stroke-linecap:butt;stroke-linejoin:miter;stroke-opacity:1;stroke-dasharray:none"
       d="m 150.33982,126.68495 c 4.4901,-6.72611 -2.84649,-11.30192 -13.66726,-15.24424"
       id="path1631"
       inkscape:connector-type="polyline"
       inkscape:connector-curvature="0"
       sodipodi:nodetypes="cc" /><path
       style="fill:none;fill-rule:evenodd;stroke:#c840aa;stroke-width:1.265;stroke-linecap:butt;stroke-linejoin:miter;stroke-opacity:1;stroke-dasharray:none"
       d="m 137.72389,110.91504 c 2.84278,-5.12032 -8.06484,-11.95943 -15.76991,-18.398227"
       id="path1635"
       inkscape:connector-type="polyline"
       inkscape:connector-curvature="0"
       sodipodi:nodetypes="cc" /><path
       style="fill:none;fill-rule:evenodd;stroke:#c840aa;stroke-width:1.265;stroke-linecap:butt;stroke-linejoin:miter;stroke-opacity:1;stroke-dasharray:none"
       d="m 134.02662,119.51512 c -7.24586,-8.31966 -15.8669,-16.46743 -12.31784,-26.136452"
       id="path1733"
       inkscape:connector-type="polyline"
       inkscape:connector-curvature="0"
       sodipodi:nodetypes="cc" /><path
       style="display:inline;fill:none;fill-rule:evenodd;stroke:#c840aa;stroke-width:1.265;stroke-linecap:butt;stroke-linejoin:miter;stroke-opacity:1;stroke-dasharray:none"
       d="m 139.30088,112.49204 c -4.73097,3.47395 -9.46195,-0.35101 -14.19292,-3.67965"
       id="path1735"
       inkscape:connector-type="polyline"
       inkscape:connector-curvature="0"
       sodipodi:nodetypes="cc" /><path
       style="fill:none;fill-rule:evenodd;stroke:#000000;stroke-width:0.264583px;stroke-linecap:butt;stroke-linejoin:miter;stroke-opacity:1"
       d="m 111.44071,194.49557 v 0"
       id="path1737"
       inkscape:connector-type="polyline"
       inkscape:connector-curvature="0" /><path
       style="fill:none;fill-rule:evenodd;stroke:#000000;stroke-width:0.264583px;stroke-linecap:butt;stroke-linejoin:miter;stroke-opacity:1"
       d="m 114.06903,195.02124 v 0"
       id="path1739"
       inkscape:connector-type="polyline"
       inkscape:connector-curvature="0" /><path
       style="fill:none;fill-rule:evenodd;stroke:#c840aa;stroke-width:1.265;stroke-linecap:butt;stroke-linejoin:miter;stroke-opacity:1;stroke-dasharray:none"
       d="m 125.63363,109.33805 c -3.18469,1.18026 -8.49204,1.43186 9.98761,12.09027"
       id="path1741"
       inkscape:connector-type="polyline"
       inkscape:connector-curvature="0"
       sodipodi:nodetypes="cc" /><path
       style="fill:none;fill-rule:evenodd;stroke:#c840aa;stroke-width:1.265;stroke-linecap:butt;stroke-linejoin:miter;stroke-opacity:1;stroke-dasharray:none"
       d="M 125.63363,109.33805 C 120.37699,93.232456 115.12036,79.959586 109.86372,91.465486"
       id="path1743"
       inkscape:connector-type="polyline"
       inkscape:connector-curvature="0"
       sodipodi:nodetypes="cc" /><path
       style="fill:none;fill-rule:evenodd;stroke:#000000;stroke-width:0.264583px;stroke-linecap:butt;stroke-linejoin:miter;stroke-opacity:1"
       d="M 41.527433,80.952212 H 41.00177"
       id="path1745"
       inkscape:connector-type="polyline"
       inkscape:connector-curvature="0" /><path
       style="fill:none;fill-rule:evenodd;stroke:#c840aa;stroke-width:1.265;stroke-linecap:butt;stroke-linejoin:miter;stroke-opacity:1;stroke-dasharray:none"
       d="M 124.05664,109.86372 C 116.01785,88.153565 114.14878,94.11074 108.81239,96.722122"
       id="path1747"
       inkscape:connector-type="polyline"
       inkscape:connector-curvature="0"
       sodipodi:nodetypes="cc" /><g
       aria-label="Bueaty"
       id="text1803"
       style="font-size:64.5057px;font-family:Candara;-inkscape-font-specification:Candara;opacity:0.71;fill:#e6d542;stroke:#c840aa;stroke-width:1.265;paint-order:fill markers stroke;stop-color:#000000"><path
         d="m 11.754791,165.05841 0.220478,-6.58286 q 0.377964,-9.51207 0.377964,-15.02403 0,-3.24418 -0.09449,-6.86633 -0.09449,-3.65364 -0.251976,-7.84273 l -0.188981,-4.72454 h 2.645741 q 1.480356,0 3.622147,-0.0945 l 2.078797,-0.063 q 1.196883,0 2.614244,-0.0315 6.236391,0 9.354586,2.26778 3.118196,2.23628 3.118196,6.70884 0,3.43317 -1.795325,6.01591 -1.763827,2.55125 -4.598551,3.77963 v 0.18899 q 4.157594,0.47245 6.677348,2.9922 2.551251,2.48826 2.551251,6.45687 0,6.26789 -4.91352,9.63806 -4.91352,3.37017 -12.945236,3.37017 -1.574846,0 -8.472672,-0.18898 z m 2.771729,-38.70972 q 0.125988,0.56695 0.157485,4.25209 0.0315,3.68514 0.0315,11.05542 1.291374,0.063 5.291483,0.063 l 1.354368,0.0315 q 4.126097,0 7.590758,-1.60635 3.496159,-1.63784 3.716637,-6.61435 0,-3.71664 -2.45676,-5.54346 -2.45676,-1.82682 -7.685249,-1.82682 -3.149693,0 -5.480465,0.0945 -2.299275,0.0945 -2.519754,0.0945 z m 0.188982,17.79576 -0.0315,9.32309 q 0,5.92142 0.188981,9.13411 1.63784,0.37796 4.945017,0.37796 7.181299,0 11.433384,-2.48825 4.252084,-2.48826 4.252084,-7.43328 0,-4.37807 -3.496158,-6.77184 -3.464662,-2.39376 -11.212905,-2.39376 -2.45676,0 -3.653643,0.063 -1.196883,0.0315 -2.425263,0.18898 z"
         id="path1855"
         style="fill:#040404;fill-opacity:1" /><path
         d="m 69.173683,165.1214 q -0.377963,-1.76382 -0.377963,-3.0237 h -0.125988 q -1.826822,1.48036 -4.567054,2.58275 -2.740232,1.10239 -5.952918,1.10239 -6.582857,0 -8.693151,-2.86622 -2.078797,-2.89772 -2.078797,-7.84273 l 0.0315,-4.00011 q 0,-0.75593 0.0315,-2.14179 0.06299,-1.73233 0.06299,-4.63005 0,-4.03161 -0.377964,-9.03962 l 3.338674,-0.18898 q -0.251975,5.51196 -0.251975,12.56727 0,5.66945 0.314969,9.1971 0.314969,3.52766 1.952809,4.94502 1.669337,1.41736 5.858428,1.41736 6.582857,0 10.267997,-3.49616 0,-18.86665 -0.251975,-24.44161 l 2.960711,-0.18898 -0.0315,2.14179 q -0.157485,9.44908 -0.157485,14.99254 0,6.55136 0.566945,12.85074 z"
         id="path1857"
         style="stroke:#030303;stroke-opacity:1;fill:#040404;fill-opacity:1" /><path
         d="m 82.528382,149.30995 q 0,6.1104 3.748134,10.11051 3.779631,3.96861 10.173506,3.96861 4.850528,0 8.063208,-0.9764 l -0.44095,2.51975 q -0.97641,0.31497 -3.02371,0.59844 -2.047297,0.31497 -4.346572,0.31497 -8.346685,0 -12.567273,-4.37807 -4.18909,-4.40957 -4.18909,-10.86644 0,-3.43316 0.81892,-6.36238 0.850417,-2.92921 2.519753,-5.35447 3.968613,-5.1655 10.205004,-5.1655 5.606452,0 8.693148,3.62215 3.1182,3.62214 3.1182,8.94512 0,1.73234 -0.12599,2.77173 z m 0.188982,-2.23628 h 19.748566 q 0,-5.32298 -2.29927,-8.1892 -2.299276,-2.86622 -6.803336,-2.86622 -4.189091,0 -7.055311,2.83472 -2.834723,2.80323 -3.590649,8.2207 z"
         id="path1859"
         style="stroke:#030303;stroke-opacity:1;fill:#040404;fill-opacity:1" /><path
         d="m 132.86047,161.84572 q -4.1891,4.00011 -10.58297,4.00011 -4.78753,0 -7.37028,-2.11029 -2.58275,-2.14179 -2.58275,-6.23639 0,-5.134 4.40957,-7.90573 4.44107,-2.77173 16.12643,-2.86622 0.12598,-1.13389 0.12598,-2.23628 0,-4.31508 -2.45676,-5.98442 -2.45676,-1.70083 -6.70884,-1.70083 -5.03951,0 -10.14201,1.29137 l 0.40946,-2.70873 q 4.81903,-1.29138 9.85854,-1.29138 5.44896,0 8.50417,2.26778 3.0552,2.23628 3.0552,7.46477 0,1.70084 -0.18898,4.97652 -0.15749,3.24418 -0.15749,6.45687 0,4.63005 0.72443,9.79554 l -2.51975,0.12599 q -0.31497,-1.95281 -0.31497,-3.33868 z m 0.12598,-12.91373 q -8.31518,0 -13.07122,1.92131 -4.75604,1.88981 -4.75604,6.92932 0,5.60645 7.43328,5.60645 3.40167,0 6.01591,-1.0079 2.64574,-1.0079 4.37807,-3.0552 z"
         id="path1861"
         style="stroke:#030303;stroke-opacity:1;fill:#040404;fill-opacity:1" /><path
         d="m 161.36517,164.86943 q -2.74023,0.81892 -4.69304,0.81892 -5.51196,0 -7.1183,-3.0552 -1.60635,-3.0867 -1.60635,-9.89004 0,-8.25219 0.063,-14.70906 -1.88982,0 -5.85843,0.18898 l 0.12599,-2.58275 q 3.49616,0.18899 6.01591,0.18899 0,-3.43317 0.37796,-9.10262 l 2.77173,-0.18898 q -0.59844,7.27579 -0.59844,9.2916 2.74023,0 10.14201,-0.31497 l -0.18898,2.70873 q -6.48837,-0.18898 -10.14201,-0.18898 -0.18898,5.51196 -0.18898,12.97673 0,8.1892 1.76383,10.268 1.79532,2.0473 5.071,2.0473 0.91341,0 1.88982,-0.15748 0.9764,-0.18899 2.42526,-0.56695 z"
         id="path1863"
         style="stroke:#030303;stroke-opacity:1;fill:#040404;fill-opacity:1" /><path
         d="m 167.75906,178.98005 0.12598,-2.58275 q 4.50406,0 6.89783,-3.27568 2.39377,-3.24418 2.39377,-7.55926 0,-2.0158 -2.33078,-8.1577 -2.29927,-6.1734 -7.52776,-17.92175 l -1.95281,-4.34658 h 3.49616 q 0,1.0394 4.88202,12.75626 4.91352,11.71685 5.1025,14.39409 h 0.12599 q 0,-2.26778 4.1261,-13.44918 4.12609,-11.18141 4.12609,-13.70117 h 3.24419 q 0,1.13389 -1.57485,4.72454 -1.57484,3.59065 -4.85052,12.63027 -3.27568,9.03962 -4.69305,15.02403 -1.41736,6.01591 -4.18909,8.72465 -2.77173,2.74023 -7.40177,2.74023 z"
         id="path1865"
         style="stroke:#030303;stroke-opacity:1;fill:#040404;fill-opacity:1" /><path
         style="fill:none;fill-rule:evenodd;stroke:#000000;stroke-width:0.264583px;stroke-linecap:butt;stroke-linejoin:miter;stroke-opacity:1"
         d="M 11.038938,165.58407 C 237.64955,281.43524 248.17227,18.976469 110.91504,90.939823"
         id="path1868"
         inkscape:connector-type="polyline"
         inkscape:connector-curvature="0"
         sodipodi:nodetypes="cc" /></g></g></svg>
