<?xml version="1.0" encoding="UTF-8" standalone="no"?>
<!-- Created with Inkscape (http://www.inkscape.org/) -->

<svg
   width="210mm"
   height="297mm"
   viewBox="0 0 210 297"
   version="1.1"
   id="svg5"
   inkscape:version="1.2.2 (732a01da63, 2022-12-09)"
   sodipodi:docname="drawing-2.svg"
   xmlns:inkscape="http://www.inkscape.org/namespaces/inkscape"
   xmlns:sodipodi="http://sodipodi.sourceforge.net/DTD/sodipodi-0.dtd"
   xmlns="http://www.w3.org/2000/svg"
   xmlns:svg="http://www.w3.org/2000/svg">
  <sodipodi:namedview
     id="namedview7"
     pagecolor="#ffffff"
     bordercolor="#000000"
     borderopacity="0.25"
     inkscape:showpageshadow="2"
     inkscape:pageopacity="0.0"
     inkscape:pagecheckerboard="0"
     inkscape:deskcolor="#d1d1d1"
     inkscape:document-units="mm"
     showgrid="false"
     inkscape:zoom="0.35590942"
     inkscape:cx="396.16821"
     inkscape:cy="561.94073"
     inkscape:window-width="1360"
     inkscape:window-height="745"
     inkscape:window-x="-8"
     inkscape:window-y="-8"
     inkscape:window-maximized="1"
     inkscape:current-layer="layer1" />
  <defs
     id="defs2" />
  <g
     inkscape:label="Layer 1"
     inkscape:groupmode="layer"
     id="layer1">
    <g
       aria-label="أمارة"
       transform="scale(1.039485,0.96201487)"
       id="text113"
       style="font-size:67.0527px;font-family:Jokerman;-inkscape-font-specification:'Jokerman, Normal';white-space:pre;inline-size:109.846;fill-opacity:0.611399;stroke:#000000;stroke-width:1.365;stroke-opacity:0.647668;paint-order:fill markers stroke;stop-color:#000000">
      <path
         d="m 148.2023,131.97243 c 0,1.74616 -0.31649,3.43776 -0.94948,5.07479 -0.3274,0.87308 -1.03678,2.2591 -2.12813,4.15805 l -0.58933,-0.32741 c 0.0655,-0.63298 0.12003,-1.36419 0.1637,-2.19362 0.0655,-0.82943 0.0982,-1.38602 0.0982,-1.66977 0,-2.27001 -0.18553,-5.43493 -0.55659,-9.49476 -0.34923,-4.08166 -0.77486,-8.33794 -1.27688,-12.76883 -0.30558,-2.68473 -0.6439,-5.42402 -1.01496,-8.21788 0.43654,-0.96039 0.92765,-1.99718 1.47333,-3.11035 0.5675,-1.11318 1.10226,-2.16088 1.60428,-3.1431 0.34923,2.48829 0.78578,5.89331 1.30963,10.21506 0.54567,4.32175 0.9713,8.21788 1.27688,11.68838 0.39289,4.32176 0.58933,7.58491 0.58933,9.78944 z m 0.91674,-35.68723 c 0,0.545676 -0.33832,1.036785 -1.01496,1.473326 -0.45837,0.283751 -1.14592,0.58933 -2.06266,0.916736 l -6.08974,2.095398 c 0,-1.004045 1.09135,-1.888041 3.27405,-2.651988 -0.67663,-0.349233 -78.427127,-51.68931 -78.776357,-52.016716 -0.45837,-0.414713 76.549997,50.150504 76.549997,49.692135 0,-0.676638 0.57842,-1.626114 1.73525,-2.848429 1.2878,-1.353277 2.42281,-2.029916 3.40502,-2.029916 0.43655,0 0.80761,0.152789 1.11318,0.458368 0.32741,0.283751 0.49111,0.665725 0.49111,1.14592 0,0.305579 -0.0655,0.622071 -0.19644,0.949477 -0.13096,0.305579 -82.560181,-48.028685 -82.800281,-47.635798 -0.67664,-0.611158 80.835841,47.76676 80.050071,47.76676 -0.48019,0 -0.96039,0.09822 -1.44058,0.294665 -0.45837,0.196443 -0.68756,0.425627 -0.68756,0.687552 0,0.327406 0.50202,0.774861 1.50607,1.342364 1.02587,0.567503 1.89896,0.851255 2.61925,0.851255 0.48019,0 0.81851,-0.01091 1.01495,-0.03274 0.21827,-0.04365 0.65482,-0.196443 1.30963,-0.458369 z"
         id="path320"
         sodipodi:nodetypes="sccccscccccccssccccccscscsccscscscc" />
      <path
         d="m 137.13598,140.32127 h -3.40502 q -2.19361,0 -4.94382,-0.98221 -3.17584,-1.14592 -5.59864,-3.1431 -1.89895,2.32458 -3.89613,3.24132 -1.96443,0.88399 -5.76234,0.88399 h -5.10753 v -5.69686 h 5.00931 q 2.97939,0 5.30397,-1.50606 1.80073,-1.17866 3.27406,-3.3068 1.99717,-2.88117 4.91108,-5.00931 2.61925,-1.89895 4.81287,-2.4228 2.2591,3.43776 3.60146,6.18797 1.80073,3.73242 1.80073,6.057 z m -3.76516,-6.44989 q -0.42563,-1.89895 -1.30963,-3.73243 -0.75303,-1.5388 -1.99717,-3.17583 -1.57155,0.39289 -2.65199,1.47332 -0.72029,0.68756 -1.70251,2.32458 1.17866,1.27689 3.3068,2.29185 2.16088,1.01495 4.05983,1.24414 z"
         id="path322" />
      <path
         d="m 110.71434,140.32127 h -4.58368 c -1.48424,0 -2.67381,-0.60024 -3.56872,-1.80073 -0.78577,-1.0477 -1.38602,-2.60833 -1.80073,-4.6819 -0.39289,-2.07357 -0.69847,-4.62734 -0.91674,-7.6613 -0.130962,-2.46645 -0.272838,-4.99839 -0.425627,-7.59581 -0.130963,-2.59742 -0.316493,-4.56185 -0.55659,-5.8933 -0.218271,-1.35328 -0.523849,-2.45555 -0.916736,-3.3068 -0.480195,-1.0477 5.290543,-32.943057 4.439293,-32.887613 l -54.616244,4.466884 c 0.851258,-0.184813 34.348978,-13.567417 34.698205,-9.922297 9.76316,-11.481363 30.177479,44.642786 22.824859,64.019106 0.39289,3.88521 -1.90026,-2.89955 -1.15814,-1.8082 0.61115,0.91673 1.27688,1.3751 1.99717,1.3751 h 4.58368 z"
         id="path324"
         sodipodi:nodetypes="cscccccccccccscc" />
      <path
         d="m 95.326271,140.32127 q 0,3.60147 -3.077614,7.46485 -2.684728,3.40502 -6.679078,5.86057 -3.797906,2.35732 -6.253449,2.35732 -2.2591,0 -4.878346,-0.65481 -1.997175,-0.49111 -4.780124,-1.53881 -2.357321,-0.884 -4.681902,-1.76799 l 0.55659,-1.30962 q 2.160878,0.42562 4.485459,0.85125 2.357321,0.45837 4.256274,0.45837 4.190794,0 8.741734,-2.68473 4.125312,-2.45554 7.039223,-6.18797 2.913911,-3.76516 2.913911,-6.7773 0,-2.5865 -1.506066,-5.43493 -1.211401,-2.29184 -3.40502,-4.71464 l 1.866213,-5.14027 q 2.684727,2.48828 3.961609,4.97656 1.440586,2.81569 1.440586,6.28619 z"
         id="path326" />
      <path
         d="m 61.832663,130.6628 q 0,4.61642 -1.506066,6.941 -2.324581,3.60147 -8.51255,3.60147 -2.390062,0 -3.961609,-0.94948 -1.800732,-1.08044 -1.800732,-3.07761 0,-2.29184 1.14592,-5.30398 1.047699,-2.55376 2.128138,-5.14027 l -0.491109,-0.13096 1.997175,-5.53316 q 5.926044,3.11036 7.071964,3.92887 3.928869,2.75021 3.928869,5.66412 z m -2.84843,2.55377 q 0,-1.24414 -3.601463,-3.3068 -1.538807,-0.884 -3.306798,-1.73525 -1.473326,1.60429 -1.767991,1.99717 -0.916736,1.27689 -0.916736,2.42281 0,1.66977 0.916736,2.61924 0.949476,0.91674 2.521024,0.91674 1.833472,0 3.99435,-1.01496 2.160878,-1.0477 2.160878,-1.89895 z m -0.09822,-23.50773 -2.422802,4.74738 -5.369454,-2.75021 2.488283,-4.74738 z m -7.464851,3.04487 -2.455543,4.6819 -5.402194,-2.78295 2.553764,-4.71464 z"
         id="path328" />
    </g>
    <path
       style="color:#000000;fill:#000000;fill-opacity:0.528497;fill-rule:evenodd;-inkscape-stroke:none"
       d="m 71.871094,9.1328125 -1.011719,4.0410155 c 40.112495,10.03403 63.829875,17.98884 83.869145,32.203125 30.86253,21.891461 45.99536,52.546982 43.17578,81.541017 l 4.14453,0.40234 C 205.03472,96.616148 194.92172,56.384339 163.08393,33.801108 142.37804,19.11397 112.11075,19.198651 71.871094,9.1328125 Z"
       id="path1115"
       sodipodi:nodetypes="ccsccsc" />
    <path
       style="color:#000000;fill:#000000;fill-opacity:0.564767;fill-rule:evenodd;-inkscape-stroke:none"
       d="m 198.22266,125.16406 c -21.66232,31.25254 -39.06775,45.86173 -68.42774,57.70899 -26.25963,10.5962 -63.603671,19.91917 -94.66992,17.20703 l -0.371094,4.25 c 32.194534,2.81065 69.887804,-6.70832 96.636714,-17.50196 29.95858,-12.08879 48.41302,-27.60585 70.33594,-59.23437 z"
       id="path427" />
    <path
       style="fill:none;fill-rule:evenodd;stroke:#000000;stroke-width:0.264583px;stroke-linecap:butt;stroke-linejoin:miter;stroke-opacity:1"
       d="m 78.057078,249.03925 v 0"
       id="path429"
       inkscape:connector-type="polyline"
       inkscape:connector-curvature="0" />
  </g>
</svg>
