<?xml version="1.0" encoding="UTF-8" standalone="no"?>
<!-- Created with Inkscape (http://www.inkscape.org/) -->

<svg
   width="210mm"
   height="297mm"
   viewBox="0 0 210 297"
   version="1.1"
   id="svg5"
   inkscape:version="1.2.2 (732a01da63, 2022-12-09)"
   sodipodi:docname="drawing-10.svg"
   xmlns:inkscape="http://www.inkscape.org/namespaces/inkscape"
   xmlns:sodipodi="http://sodipodi.sourceforge.net/DTD/sodipodi-0.dtd"
   xmlns="http://www.w3.org/2000/svg"
   xmlns:svg="http://www.w3.org/2000/svg">
  <sodipodi:namedview
     id="namedview7"
     pagecolor="#ffffff"
     bordercolor="#000000"
     borderopacity="0.25"
     inkscape:showpageshadow="2"
     inkscape:pageopacity="0.0"
     inkscape:pagecheckerboard="0"
     inkscape:deskcolor="#d1d1d1"
     inkscape:document-units="mm"
     showgrid="false"
     inkscape:zoom="0.50333193"
     inkscape:cx="398.34548"
     inkscape:cy="462.9152"
     inkscape:window-width="1360"
     inkscape:window-height="745"
     inkscape:window-x="-8"
     inkscape:window-y="-8"
     inkscape:window-maximized="1"
     inkscape:current-layer="text1150" />
  <defs
     id="defs2" />
  <g
     inkscape:label="Layer 1"
     inkscape:groupmode="layer"
     id="layer1">
    <g
       aria-label="B"
       transform="scale(0.90060607,1.1103634)"
       id="text790"
       style="font-size:277.049px;font-family:Algerian;-inkscape-font-specification:Algerian;fill:#ffe9a6;stroke:#000000;stroke-width:1.465;stroke-opacity:0.640909;paint-order:fill markers stroke;stop-color:#000000">
      <path
         d="m 42.096327,58.142643 c 21.464083,-14.15908 12.857586,-7.509558 39.552416,-7.509558 19.389817,0 59.731797,-3.674088 71.996987,5.073879 12.26519,8.657781 28.3203,26.987081 28.3203,40.78542 0,18.397786 -10.64186,30.708066 -31.92557,36.930846 v 1.48806 c 2.16445,0.54111 4.77982,1.2626 7.84612,2.16445 10.01056,-2.34482 17.85667,-7.12464 23.53834,-14.33946 5.77185,-7.21481 8.65778,-15.91769 8.65778,-26.108618 0,-12.806302 -5.27583,-24.16964 -15.8275,-34.090015 V 61.72598 l 1.48805,1.217501 c 11.81427,9.108707 17.7214,20.787694 17.7214,35.03696 0,19.660379 -10.19093,33.368529 -30.57279,41.124459 8.83815,4.05834 15.69223,9.8302 20.56223,17.31557 4.96019,7.48537 7.44028,15.91769 7.44028,25.29695 0,13.4376 -4.87,24.21474 -14.61001,32.33141 -9.74,8.02648 -22.72698,12.12093 -38.96001,12.03972 -36.53773,-0.18278 -76.628094,4.27536 -108.532491,15.14931 l 30.341897,-31.11209 v -50.52724 c -5.320929,0 -11.543709,0.54111 -18.668342,1.62334 l -2.249578,-4.39648 c 8.026485,-0.81167 15.777362,-2.63774 20.91792,-2.63774 V 140.86352 H 55.75181 c -5.050373,0 -11.408431,0.36074 -19.074175,1.08222 l 5.952224,-12.98667 2.164446,0.13527 c 3.517223,0.27056 6.177687,0.40584 7.981392,0.40584 2.705557,0 4.82491,0.13528 6.358059,0.40583 l 5.836777,-74.061848 z m 44.092996,10.753063 v 61.010304 c 0.992037,-0.0902 1.668427,-0.13528 2.029168,-0.13528 l 2.435001,0.13528 h 2.299723 V 74.577375 c 7.755925,-3.607409 15.331485,-5.411114 22.726675,-5.411114 8.47741,0 15.15112,1.533149 20.02112,4.599447 4.96019,3.066297 9.1538,8.29704 12.58084,15.692229 l -3.78778,-2.164446 c -6.76389,-10.19093 -16.41371,-15.286395 -28.94946,-15.286395 -7.03445,0 -13.34741,1.984075 -18.938893,5.952225 v 51.946689 h 5.681673 c 17.22537,0 30.03167,-2.84083 38.4189,-8.5225 8.47741,-5.77186 12.71612,-14.56492 12.71612,-26.379182 0,-10.371301 -3.51722,-18.713434 -10.55167,-25.0264 -6.94427,-6.403151 -16.09807,-9.604726 -27.4614,-9.604726 -10.01056,0 -19.750566,2.840835 -29.220017,8.522504 z m 0,72.103084 v 74.53809 h 6.763892 v -66.42142 c 6.40315,-0.45093 11.002595,-0.67639 13.798335,-0.67639 14.97075,0 25.79298,1.39787 32.46669,4.19362 6.76389,2.79574 12.12991,8.11667 16.09806,15.96278 h -1.62334 c -4.41907,-6.22278 -9.96546,-10.50658 -16.63917,-12.85139 -6.67371,-2.435 -16.4588,-3.6525 -29.35529,-3.6525 l -11.092783,0.27055 v 63.17475 h 4.328893 l 19.61528,-0.67639 c 25.43223,-1.8037 38.14835,-14.15908 38.14835,-37.06613 0,-14.33945 -4.19361,-24.12454 -12.58083,-29.35529 -8.38723,-5.32093 -24.07946,-7.98139 -47.076692,-7.98139 -2.254631,0 -6.538429,0.18037 -12.851395,0.54111 z m 101.323097,9.46945 c 9.64982,7.48537 14.47473,18.84871 14.47473,34.09002 0,15.33149 -5.36602,28.00251 -16.09806,38.01307 -10.46149,9.74001 -25.83807,14.61001 -46.12974,14.61001 l -107.748232,8.9949 1.786021,-1.75884 97.033871,-10.88857 c 18.40286,-2.06506 31.97066,-1.89389 40.17752,-5.68167 18.21741,-8.47741 27.32612,-23.22269 27.32612,-44.23585 0,-11.72408 -4.14852,-22.36594 -12.44556,-31.92557 z"
         id="path997"
         sodipodi:nodetypes="cscsccccscccsccscscccccccscccscccccccccscccsccscscscccccscccccccccscsccscsccscscc" />
    </g>
    <path
       style="fill:none;fill-rule:evenodd;stroke:#000000;stroke-width:1.465;stroke-linecap:butt;stroke-linejoin:miter;stroke-opacity:0.58549225;stroke-dasharray:none"
       d="m 19.974361,275.24255 c 74.658804,14.38594 130.426029,7.49592 159.767269,-29.1554 20.2286,-25.26835 27.89673,-64.68247 20.53545,-121.02292"
       id="path1094"
       inkscape:connector-type="polyline"
       inkscape:connector-curvature="0"
       sodipodi:nodetypes="csc" />
    <g
       aria-label="بهار"
       transform="scale(1.323755,0.75542681)"
       id="text1150"
       style="font-size:65.2978px;font-family:Aldhabi;-inkscape-font-specification:Aldhabi;fill:#ffe9a6;stroke:#000000;stroke-width:1.465;stroke-opacity:0.585492;paint-order:fill markers stroke;stop-color:#000000">
      <path
         d="m 82.086473,37.800039 q 0,-0.17536 0.111593,-0.749266 0.09565,-0.557965 0.526081,-1.546359 0.557964,-1.29129 1.243464,-2.439103 0.701441,-1.163754 1.785486,-2.152149 0.940569,-0.844918 2.008673,-1.657952 1.084045,-0.828976 2.199975,-1.562301 1.115929,-0.733324 2.215916,-1.355056 1.115929,-0.621732 2.120266,-1.068104 1.020278,-0.446372 1.897079,-0.701441 0.876802,-0.25507 1.514475,-0.25507 0.605791,0 1.03622,0.143477 0.446372,0.143476 0.733325,0.382604 0.286953,0.239128 0.414488,0.542023 0.143476,0.302895 0.143476,0.621732 0,0.302895 -0.07971,0.733325 -0.07971,0.414488 -0.207244,0.924627 -0.127535,0.494197 -0.302895,1.03622 -0.175361,0.542022 -0.366663,1.068103 -0.03188,0.07971 -0.06377,0.143477 -0.01594,0.04782 -0.09565,0.04782 -0.07971,0 -0.111593,-0.04782 -0.01594,-0.06377 -0.01594,-0.143477 0,-0.159418 -0.111593,-0.398546 -0.111593,-0.239127 -0.350721,-0.446371 -0.239127,-0.223186 -0.60579,-0.366663 -0.35072,-0.159418 -0.844918,-0.159418 -0.637673,0 -1.530417,0.271011 -0.876801,0.25507 -1.913021,0.717383 -1.03622,0.462314 -2.184033,1.099987 -1.131871,0.637674 -2.263742,1.386941 -1.131871,0.733325 -2.199975,1.562301 -1.068103,0.828976 -1.960847,1.657952 -0.653615,0.573906 -1.21158,1.259405 -0.557964,0.701442 -1.020278,1.450708 -0.04782,0.07971 -0.111593,0.143477 -0.07971,0.07971 -0.207244,0.07971 -0.09565,0 -0.143476,-0.07971 -0.04783,-0.06377 -0.04783,-0.143477 z"
         id="path1202" />
      <path
         d="m 100.77031,48.481075 q -0.12753,0.398546 -0.3826,0.956511 -0.23913,0.573906 -0.510141,1.099987 -0.271011,0.526081 -0.510139,0.892743 -0.239128,0.366663 -0.35072,0.366663 -0.175361,0 -0.653616,-0.223186 -0.478255,-0.223186 -1.03622,-0.589848 -0.573906,-0.350721 -1.099987,-0.828976 -0.526081,-0.462314 -0.781151,-0.972453 0,-0.04783 0.07971,-0.286953 0.07971,-0.239128 0.207244,-0.557965 0.143477,-0.318836 0.302895,-0.701441 0.159419,-0.382604 0.334779,-0.733325 0.175361,-0.35072 0.350721,-0.637673 0.159418,-0.271012 0.286953,-0.398547 0.494197,0.510139 1.004336,0.924627 0.510139,0.414488 1.004337,0.749267 0.494197,0.334779 0.940568,0.557965 0.446372,0.239127 0.813032,0.35072 z"
         id="path1204" />
      <path
         d="m 77.718403,45.611544 q 0,0.462313 0.191303,0.892743 0.191302,0.43043 0.542022,0.765208 0.366663,0.318837 0.892744,0.51014 0.542022,0.191302 1.243464,0.191302 0.557964,0 1.052161,-0.111593 0.510139,-0.111593 1.020279,-0.302895 0.669557,-0.653616 1.163754,-1.370999 0.494197,-0.717383 0.589849,-1.370999 0,-1.243464 -0.653616,-2.008672 -0.637674,-0.765209 -1.960847,-0.765209 -0.733325,0 -1.46665,0.366663 -0.717383,0.35072 -1.307231,0.892743 -0.573907,0.542023 -0.940569,1.163755 -0.366663,0.621732 -0.366663,1.147813 z m 7.141947,1.275347 q 1.64201,-0.797092 3.013009,-1.626068 1.38694,-0.844918 2.359393,-1.626068 0.988394,-0.797093 1.530417,-1.498534 0.557965,-0.717383 0.557965,-1.275347 0,-0.414488 -0.350721,-0.653616 -0.334779,-0.239128 -0.892743,-0.239128 -0.510139,0 -1.243464,0.175361 -0.733325,0.17536 -1.498534,0.382604 -0.78115,0.223186 -1.498533,0.398546 -0.717383,0.17536 -1.21158,0.191302 l -0.06377,0.06377 q 0.04783,0.17536 0.07971,0.510139 0.04782,0.318837 0.04782,0.637673 0,0.382605 -0.07971,0.924627 -0.07971,0.542023 -0.207244,1.147813 -0.127535,0.589849 -0.286953,1.227522 -0.159419,0.621732 -0.318837,1.163755 z m -0.06377,-9.214386 q 0.78115,-0.07971 1.64201,-0.318837 0.860859,-0.239128 1.753603,-0.494197 0.876801,-0.239128 1.753603,-0.43043 0.876801,-0.191302 1.673894,-0.191302 0.892743,0 1.418824,0.557964 0.526081,0.542023 0.526081,1.737661 0,0.653616 -0.127535,1.275348 -0.127535,0.621732 -0.25507,1.339115 -0.366662,2.136207 -1.131871,3.650682 -0.765208,1.498534 -1.897079,2.630405 -0.717383,0.701441 -1.610127,1.339115 -0.892743,0.637674 -1.865195,1.195638 -0.956511,0.573907 -1.944906,1.052162 -0.988394,0.478255 -1.913021,0.876802 -2.630404,4.017345 -5.197042,5.946308 -2.566637,1.928963 -5.069506,1.928963 -1.195639,0 -2.247801,-0.35072 -1.036219,-0.350721 -1.913021,-1.099988 -0.86086,-0.733325 -1.546359,-1.913021 -0.685499,-1.163755 -1.179697,-2.821707 -0.318836,-1.084045 -0.589848,-2.199974 -0.271011,-1.099988 -0.462313,-2.056498 -0.191302,-0.956511 -0.302895,-1.673894 -0.111593,-0.717383 -0.111593,-1.020278 0,-0.749267 0.09565,-1.46665 0.09565,-0.717383 0.286953,-1.339115 h 0.191302 q 0.478256,0.557964 0.749267,1.052162 0.271011,0.478255 0.366662,0.892743 0.04783,0.207244 0.159419,0.669558 0.111593,0.462313 0.271011,1.068103 0.159419,0.60579 0.350721,1.307231 0.191302,0.701442 0.398546,1.386941 0.398546,1.370999 0.876801,2.327509 0.494198,0.972453 1.11593,1.562301 0.621731,0.60579 1.434766,0.876802 0.813034,0.271011 1.897079,0.271011 0.733325,0 1.482592,-0.191302 0.749267,-0.17536 1.530417,-0.589848 0.78115,-0.414488 1.578243,-1.084046 0.797092,-0.653615 1.626068,-1.610126 v -0.127535 q -0.414488,-0.302895 -0.749267,-0.701441 -0.334779,-0.398546 -0.589848,-0.908685 -0.239128,-0.494198 -0.382604,-1.115929 -0.127535,-0.637674 -0.127535,-1.418825 0,-1.833312 0.366662,-3.363729 0.366663,-1.546359 1.163755,-2.789823 0.478255,-0.797092 1.275348,-1.482592 0.813034,-0.701441 2.136207,-1.227522 0.17536,-0.797092 0.414488,-1.5623 0.239127,-0.765209 0.60579,-1.562301 0.557964,-1.179697 1.099987,-1.785487 0.542023,-0.60579 1.195639,-0.924627 l 0.191302,0.191302 q 0,0.653616 -0.302895,1.29129 -0.286954,0.621732 -0.637674,1.163754 -0.350721,0.542023 -0.637674,0.940569 -0.302895,0.414488 -0.302895,0.621732 0,0.334779 0.382604,0.510139 0.382605,0.159419 1.084046,0.159419 z"
         id="path1206" />
      <path
         d="m 60.533094,36.476866 q 0.334779,-0.956511 0.6855,-1.944905 0.334778,-0.988395 0.749266,-2.07244 h 0.127535 q 1.227522,2.773881 2.088382,5.61153 0.876801,2.837648 1.450708,5.802831 0.557964,2.965183 1.243464,5.563704 0.701441,2.582579 1.466649,4.57531 l -0.318836,1.339115 q -0.366663,0 -0.797093,-0.271012 -0.43043,-0.286953 -0.908685,-1.052161 -0.478255,-0.781151 -0.972453,-2.136208 -0.478255,-1.370998 -0.924627,-3.555031 -0.52608,-2.50287 -1.498533,-5.452111 -0.972453,-2.949242 -2.391277,-6.408622 z"
         id="path1208" />
      <path
         d="m 58.141817,32.522553 q 0,0.225502 -0.04783,0.413424 -0.04783,0.187923 -0.143477,0.187923 -0.143476,0 -0.191302,-0.37584 -0.366662,-2.330215 -0.828976,-3.608075 -0.462313,-1.277857 -0.797092,-1.277857 -0.127535,0 -0.207244,0.37584 -0.06377,0.338257 -0.111593,0.864435 -0.03188,0.488593 -0.06377,1.127522 -0.01594,0.601346 -0.03188,1.08994 -0.191302,5.449692 -0.526081,9.471191 -0.334779,3.983912 -0.813034,6.99064 -0.462314,2.969144 -1.068104,5.111436 -0.589848,2.142293 -1.291289,3.833577 -0.828976,1.954373 -1.913022,3.307399 -1.068103,1.353029 -2.215916,2.292631 -1.147813,0.977186 -2.295626,1.578531 -1.131871,0.638931 -2.056498,1.089939 -0.510139,0.225502 -0.860859,0.601345 -0.350721,0.375842 -0.446372,0.375842 -0.223186,0 -0.223186,-0.300673 0,-0.112763 0.143477,-0.413425 0.143476,-0.263089 0.35072,-0.601346 0.223186,-0.338256 0.478256,-0.714098 0.239127,-0.37584 0.430429,-0.676513 1.211581,-1.916788 2.598521,-4.359755 1.402883,-2.405381 2.741998,-5.712783 1.355056,-3.307399 2.550695,-7.704738 1.195638,-4.397338 1.99273,-10.260457 0.223186,-1.6537 0.382605,-3.382568 0.17536,-1.766451 0.286953,-3.457735 0.127535,-1.691284 0.223186,-3.307401 0.09565,-1.578531 0.191302,-3.006726 0.191302,-3.044313 0.462313,-4.885932 0.286954,-1.879206 0.749267,-1.879206 0.382604,0 0.844918,0.864435 0.478255,0.826849 0.908685,2.743639 0.25507,1.089938 0.414488,2.969142 0.159419,1.841622 0.239128,3.833579 0.09565,1.991955 0.111593,3.871161 0.03188,1.84162 0.03188,2.931559 z"
         id="path1210"
         style="stroke-width:1.465" />
    </g>
  </g>
</svg>
